<?xml version="1.0" encoding="UTF-8" standalone="no"?>
<!-- Created with Inkscape (http://www.inkscape.org/) -->

<svg
   xmlns:dc="http://purl.org/dc/elements/1.1/"
   xmlns:cc="http://creativecommons.org/ns#"
   xmlns:rdf="http://www.w3.org/1999/02/22-rdf-syntax-ns#"
   xmlns:svg="http://www.w3.org/2000/svg"
   xmlns="http://www.w3.org/2000/svg"
   version="1.2"
   width="138.80106"
   height="50.575695"
   id="svg3086">
  <defs
     id="defs3088" />
  <metadata
     id="metadata3091">
    <rdf:RDF>
      <cc:Work
         rdf:about="">
        <dc:format>image/svg+xml</dc:format>
        <dc:type
           rdf:resource="http://purl.org/dc/dcmitype/StillImage" />
        <dc:title></dc:title>
      </cc:Work>
    </rdf:RDF>
  </metadata>
  <g
     transform="translate(-275,-586.71719)"
     id="layer1">
    <flowRoot
       id="flowRoot3169"
       xml:space="preserve"
       style="font-size:10px;font-style:normal;font-weight:normal;line-height:125%;letter-spacing:0px;word-spacing:0px;fill:#000000;fill-opacity:1;stroke:none;font-family:Sans"><flowRegion
         id="flowRegion3171"><rect
           width="45.714287"
           height="10.714286"
           x="334.64285"
           y="660.57648"
           id="rect3173" /></flowRegion><flowPara
         id="flowPara3175" /></flowRoot>    <flowRoot
       id="flowRoot3181"
       xml:space="preserve"
       style="font-size:10px;font-style:normal;font-weight:normal;line-height:125%;letter-spacing:0px;word-spacing:0px;fill:#000000;fill-opacity:1;stroke:none;font-family:Sans"><flowRegion
         id="flowRegion3183"><rect
           width="55"
           height="11.071428"
           x="321.07144"
           y="653.79077"
           id="rect3185" /></flowRegion><flowPara
         id="flowPara3187">BERLIN</flowPara></flowRoot>    <flowRoot
       id="flowRoot3189"
       xml:space="preserve"
       style="font-size:20px;font-style:normal;font-weight:normal;line-height:125%;letter-spacing:0px;word-spacing:0px;fill:#000000;fill-opacity:1;stroke:none;font-family:Sans"><flowRegion
         id="flowRegion3191"><rect
           width="57.5"
           height="16.428572"
           x="320.35715"
           y="655.2193"
           id="rect3193"
           style="font-size:20px" /></flowRegion><flowPara
         id="flowPara3195">BERLIN</flowPara></flowRoot>    <g
       transform="matrix(0.98294442,0,0,1.2833164,58.311148,-265.4766)"
       id="flowRoot3161"
       style="font-size:20px;font-style:normal;font-variant:normal;font-weight:bold;font-stretch:normal;text-align:start;line-height:125%;letter-spacing:0px;word-spacing:0px;writing-mode:lr-tb;text-anchor:start;fill:#0a1d3a;fill-opacity:1;stroke:none;font-family:Sans;-inkscape-font-specification:Sans Bold">
      <path
         d="m 277.89844,668.79241 6.24023,0 c 1.85546,10e-6 3.27799,0.41342 4.26758,1.24023 0.99608,0.82032 1.49413,1.9922 1.49414,3.51562 -1e-5,1.52996 -0.49806,2.70834 -1.49414,3.53516 -0.98959,0.82032 -2.41212,1.23047 -4.26758,1.23047 l -2.48047,0 0,5.05859 -3.75976,0 0,-14.58007 m 3.75976,2.7246 0,4.07227 2.08008,0 c 0.72916,10e-6 1.29231,-0.17577 1.68945,-0.52734 0.39713,-0.35807 0.5957,-0.86262 0.59571,-1.51368 -10e-6,-0.65103 -0.19858,-1.15233 -0.59571,-1.5039 -0.39714,-0.35155 -0.96029,-0.52733 -1.68945,-0.52735 l -2.08008,0"
         id="path3461" />
      <path
         d="m 299.20703,671.25334 c -1.14584,10e-6 -2.03451,0.42319 -2.66601,1.26953 -0.63152,0.84637 -0.94727,2.03777 -0.94727,3.57422 0,1.52996 0.31575,2.71811 0.94727,3.56446 0.6315,0.84635 1.52017,1.26953 2.66601,1.26953 1.15234,0 2.04426,-0.42318 2.67578,-1.26953 0.6315,-0.84635 0.94726,-2.0345 0.94727,-3.56446 -1e-5,-1.53645 -0.31577,-2.72785 -0.94727,-3.57422 -0.63152,-0.84634 -1.52344,-1.26952 -2.67578,-1.26953 m 0,-2.72461 c 2.34374,2e-5 4.17968,0.67059 5.50781,2.01172 1.32811,1.34116 1.99218,3.19337 1.99219,5.55664 -10e-6,2.35678 -0.66408,4.20573 -1.99219,5.54688 -1.32813,1.34114 -3.16407,2.01172 -5.50781,2.01172 -2.33724,0 -4.17318,-0.67058 -5.50781,-2.01172 -1.32813,-1.34115 -1.99219,-3.1901 -1.99219,-5.54688 0,-2.36327 0.66406,-4.21548 1.99219,-5.55664 1.33463,-1.34113 3.17057,-2.0117 5.50781,-2.01172"
         id="path3463" />
      <path
         d="m 309.53906,668.79241 3.75977,0 0,11.73828 6.60156,0 0,2.84179 -10.36133,0 0,-14.58007"
         id="path3465" />
      <path
         d="m 322.27344,668.79241 3.75976,0 0,14.58007 -3.75976,0 0,-14.58007"
         id="path3467" />
      <path
         d="m 329.02148,668.79241 12.25586,0 0,2.27539 -7.82226,9.46289 8.04687,0 0,2.84179 -12.70508,0 0,-2.27539 7.82227,-9.46289 -7.59766,0 0,-2.84179"
         id="path3469" />
      <path
         d="m 344.22656,668.79241 10.14649,0 0,2.84179 -6.38672,0 0,2.71485 6.00586,0 0,2.84179 -6.00586,0 0,3.33985 6.60156,0 0,2.84179 -10.36133,0 0,-14.58007"
         id="path3471" />
      <path
         d="m 357.89844,668.79241 3.75976,0 0,14.58007 -3.75976,0 0,-14.58007"
         id="path3473" />
    </g>
    <g
       transform="matrix(0.98693504,0,0,1.2449526,15.25395,-200.13605)"
       id="flowRoot3197"
       style="font-size:16px;font-style:normal;font-weight:normal;line-height:125%;letter-spacing:0px;word-spacing:0px;fill:#0a1d3a;fill-opacity:1;stroke:none;font-family:Sans">
      <path
         d="m 321.71094,662.75267 0,4.27344 2.53125,0 c 0.84895,0 1.47655,-0.17448 1.88281,-0.52344 0.41145,-0.35416 0.61718,-0.89322 0.61719,-1.61718 -10e-6,-0.72917 -0.20574,-1.26562 -0.61719,-1.60938 -0.40626,-0.34895 -1.03386,-0.52343 -1.88281,-0.52344 l -2.53125,0 m 0,-4.79687 0,3.51562 2.33593,0 c 0.77083,1e-5 1.34375,-0.14322 1.71875,-0.42968 0.38021,-0.29166 0.57031,-0.73437 0.57032,-1.32813 -10e-6,-0.58853 -0.19011,-1.02863 -0.57032,-1.32031 -0.375,-0.29166 -0.94792,-0.43749 -1.71875,-0.4375 l -2.33593,0 m -1.57813,-1.29688 4.03125,0 c 1.20312,2e-5 2.1302,0.25002 2.78125,0.75 0.65104,0.50001 0.97656,1.21095 0.97656,2.13282 0,0.71355 -0.16667,1.28125 -0.5,1.70312 -0.33334,0.42188 -0.82292,0.6849 -1.46875,0.78906 0.77604,0.16668 1.3776,0.51563 1.80469,1.04688 0.43228,0.52605 0.64843,1.1849 0.64844,1.97656 -10e-6,1.04167 -0.35418,1.84636 -1.0625,2.41406 -0.70834,0.56771 -1.71615,0.85157 -3.02344,0.85157 l -4.1875,0 0,-11.66407"
         id="path3476" />
      <path
         d="m 331.10156,656.65892 7.375,0 0,1.32813 -5.79687,0 0,3.45312 5.55468,0 0,1.32813 -5.55468,0 0,4.22656 5.9375,0 0,1.32813 -7.51563,0 0,-11.66407"
         id="path3478" />
      <path
         d="m 346.75781,662.85424 c 0.33854,0.11459 0.66666,0.35938 0.98438,0.73437 0.32291,0.37501 0.64582,0.89063 0.96875,1.54688 l 1.60156,3.1875 -1.69531,0 -1.49219,-2.99219 c -0.38542,-0.78125 -0.76042,-1.29948 -1.125,-1.55469 -0.35938,-0.2552 -0.85157,-0.38281 -1.47656,-0.38281 l -1.71875,0 0,4.92969 -1.57813,0 0,-11.66407 3.5625,0 c 1.33333,2e-5 2.32812,0.27866 2.98438,0.83594 0.65624,0.5573 0.98436,1.39845 0.98437,2.52344 -1e-5,0.73438 -0.17188,1.34376 -0.51562,1.82812 -0.33855,0.48439 -0.83334,0.82032 -1.48438,1.00782 m -3.95312,-4.89844 0,4.14062 1.98437,0 c 0.76041,1e-5 1.33333,-0.17447 1.71875,-0.52343 0.39062,-0.35416 0.58593,-0.87239 0.58594,-1.55469 -10e-6,-0.68228 -0.19532,-1.1953 -0.58594,-1.53906 -0.38542,-0.34895 -0.95834,-0.52343 -1.71875,-0.52344 l -1.98437,0"
         id="path3480" />
      <path
         d="m 352.35156,656.65892 1.57813,0 0,10.33594 5.67968,0 0,1.32813 -7.25781,0 0,-11.66407"
         id="path3482" />
      <path
         d="m 361.25781,656.65892 1.57813,0 0,11.66407 -1.57813,0 0,-11.66407"
         id="path3484" />
      <path
         d="m 365.97656,656.65892 2.125,0 5.17188,9.75782 0,-9.75782 1.53125,0 0,11.66407 -2.125,0 -5.17188,-9.75782 0,9.75782 -1.53125,0 0,-11.66407"
         id="path3486" />
    </g>
    <g
       transform="matrix(0.16636842,0,0,-0.16642811,273.66905,638.63353)"
       id="g10">
      <g
         transform="matrix(4.2882205,0,0,4.2882205,-71.010787,-3219.2512)"
         id="g4464">
        <path
           d="m 56.9281,817.5953 c 0.932,0.045 1.769,0.099 1.908,-0.7 0.187,-1.069 -0.415,-2.643 -0.39,-3.678 1.074,-0.028 1.326,-1.387 0.974,-2.393 0.193,-0.163 0.935,-0.225 1.129,-0.389 0.797,2.198 1.478,1.786 2.14,1.674 0.28,0.449 0.51,1.491 0.779,2.179 0.232,0.596 0.43,1.119 0.876,1.362 0.531,0.289 1.32,-0.03 1.752,-0.428 0.947,1.696 1.05,3.424 3.833,3.598 1.865,0.118 3.286,-1.432 3.209,-3.345 -0.059,-1.436 -1.315,-2.355 -1.865,-3.425 0.681,-0.281 1.607,-0.744 1.312,-1.681 -0.272,-0.864 -1.768,-1.997 -2.208,-2.716 1.285,-0.894 0.259,-2.198 -0.448,-2.684 0.195,0.005 0.84,-0.76 0.993,-0.779 0.112,-0.014 0.98,0.647 1.206,0.74 0.639,0.262 0.953,-0.1 1.422,-0.467 0.412,0.292 1.056,0.864 1.557,1.264 0.447,0.358 0.9,0.928 1.401,0.973 0.856,0.078 1.315,-0.482 1.576,-1.187 1.176,0.584 1.791,1.576 3.62,1.634 1.566,0.05 2.925,-1.252 3.056,-2.957 0.079,-1.035 -0.458,-2.137 -1.266,-2.777 -0.665,-0.527 -1.651,-0.791 -2.51,-1.288 0.993,-1.324 0.674,-1.894 -0.181,-2.338 -0.811,-0.421 -2.096,-0.632 -2.8,-0.999 0.432,-1.586 -0.717,-1.821 -1.696,-2.073 0.096,-0.249 0.32,-0.916 0.357,-1.225 1.439,0.35 2.261,-0.052 2.471,-1.031 0.955,-0.014 2.49,0.625 3.64,0.447 0.769,-0.118 0.771,-1.031 0.7,-1.945 0.794,-0.071 1.861,0.112 2.647,0.097 3.035,-0.057 3.686,-3.56 1.849,-5.389 -0.454,-0.452 -1.386,-0.865 -2.081,-0.908 -0.778,-0.048 -1.601,0.179 -2.544,0.184 0.046,-0.934 0.146,-1.801 -0.649,-1.942 -1.065,-0.186 -2.589,0.532 -3.62,0.506 -0.032,-1.097 -1.09,-1.342 -2.453,-0.914 -0.088,-0.256 -0.346,-1.039 -0.486,-1.245 1.732,-0.622 1.985,-0.854 1.771,-2.121 0.776,-0.558 2.499,-0.75 3.289,-1.342 0.779,-0.584 0.312,-1.501 -0.214,-2.063 1.736,-0.892 3.309,-1.224 3.678,-3.754 0.106,-0.721 -0.299,-1.57 -0.701,-2.062 -0.796,-0.978 -2.407,-1.496 -3.872,-0.837 -0.789,0.356 -1.35,1.033 -2.142,1.459 -0.447,-1.147 -1.147,-1.634 -2.14,-1.031 -0.395,0.24 -0.834,0.602 -1.246,0.953 -0.443,0.38 -0.782,0.651 -1.109,0.973 -0.603,-1.148 -1.732,-0.427 -2.666,0.369 -0.193,-0.2 -0.621,-0.657 -0.876,-0.796 0.661,-0.876 1.246,-1.771 0.428,-2.647 0.312,-0.398 0.652,-0.933 1.071,-1.459 0.913,-1.144 0.892,-1.093 0.973,-1.304 0.448,-1.167 -0.519,-1.615 -1.187,-1.886 0.574,-1.232 2.021,-2.163 1.712,-4.086 -0.253,-1.576 -1.547,-2.394 -3.289,-2.51 -0.484,-0.032 -2.199,0.371 -2.647,1.538 -0.287,0.746 -0.582,1.336 -1.031,2.159 0.501,0.377 -1.425,-1.571 -2.394,0.312 -0.42,0.814 -0.646,2.054 -1.013,2.762 -1.381,-0.701 -1.85,0.593 -2.101,1.576 -0.259,-0.098 -0.897,-0.167 -1.226,-0.195 0.405,-1.047 0.097,-2.548 -0.934,-2.452 -0.051,-1.084 0.768,-3.017 0.33,-4.006 -0.254,-0.575 -0.981,-0.484 -1.829,-0.409 -0.071,-0.797 0.151,-1.507 0.136,-2.297 -0.054,-2.85 -3.397,-4.399 -5.371,-2.431 -0.472,0.469 -0.726,0.784 -0.877,1.518 -0.175,0.856 0.031,2.372 0.04,3.307 -0.974,-0.37 -1.888,0.019 -1.85,0.973 0.045,1.084 0.454,2.271 0.429,3.307 -1.207,0.019 -1.287,1.446 -0.934,2.451 -0.193,0.164 -1.033,0.285 -1.227,0.448 -0.274,-0.898 -0.603,-2.179 -2.141,-1.771 -0.467,-0.914 -0.775,-2.563 -1.401,-3.327 -0.457,-0.557 -1.522,-0.216 -2.082,0.312 -0.866,-1.588 -0.985,-3.584 -3.153,-3.775 -2.271,-0.198 -3.465,0.934 -3.737,3.23 -0.169,1.424 1.162,2.571 1.713,3.638 -0.668,0.273 -1.483,0.803 -1.129,1.77 0.154,0.424 0.714,1.024 1.071,1.44 0.396,0.464 0.674,0.859 0.972,1.148 -0.886,0.733 -0.331,2.043 0.428,2.743 -0.2,0.194 -0.658,0.543 -0.797,0.798 -1.193,-0.835 -1.382,-1.401 -2.589,-0.369 -0.8,-0.442 -1.651,-1.474 -2.526,-1.978 -1.055,-0.61 -1.908,0.267 -2.125,1.004 -1.071,-0.535 -1.456,-0.889 -1.966,-1.167 -3.464,-1.887 -4.707,1.977 -4.769,2.782 -0.084,1.109 0.677,2.032 1.558,2.607 0.702,0.459 1.461,0.694 2.238,1.128 -0.093,0.3 -0.389,0.176 -0.603,0.973 -0.499,1.858 2.491,1.595 3.62,2.491 -0.352,1.349 0.233,1.615 1.711,2.043 -0.096,0.259 -0.263,0.945 -0.291,1.275 -1.538,-0.557 -2.358,-0.012 -2.588,0.922 -1.225,0.019 -2.691,-0.657 -3.543,-0.525 -0.769,0.119 -0.965,0.992 -0.895,1.907 -0.807,0.075 -1.458,-0.106 -2.261,-0.083 -2.959,0.083 -4.103,3.485 -2.293,5.316 0.469,0.475 0.996,0.871 1.713,0.915 0.778,0.048 2.035,-0.034 2.978,-0.039 -0.046,0.936 0.06,1.689 0.856,1.829 1.064,0.187 2.473,-0.357 3.503,-0.331 0.029,1.079 1.451,1.307 2.453,0.953 0.163,0.195 0.172,1.043 0.336,1.237 -1.251,0.125 -1.913,0.805 -1.699,2.07 -0.716,0.49 -2.375,0.723 -3.211,1.246 -0.645,0.402 -0.402,1.467 0.214,2.14 -1.689,0.952 -3.806,1.391 -3.596,4.165 0.076,1.021 0.44,1.612 1.299,2.197 0.763,0.518 1.904,0.937 3.017,0.408 0.738,-0.351 1.69,-1.128 2.471,-1.517 0.321,0.717 0.775,1.488 1.752,1.128 0.435,-0.16 0.932,-0.621 1.343,-0.973 0.444,-0.379 0.978,-0.845 1.304,-1.167 0.623,1.109 1.908,0.311 2.589,-0.312 0.192,0.202 0.719,0.639 0.973,0.779 -0.978,0.854 -1.441,2.062 -0.389,2.704 -0.454,0.812 -1.827,1.834 -2.234,2.786 -0.347,0.81 0.602,1.532 1.338,1.747 -0.578,1.223 -1.888,2 -1.732,3.911 0.133,1.625 1.448,2.651 3.114,2.762 1.055,0.07 1.989,-0.232 2.608,-1.187 0.436,-0.672 0.681,-1.548 1.128,-2.373 0.729,0.533 1.897,0.797 2.337,-0.097 0.39,-0.795 0.903,-2.372 1.245,-3.055 1.345,0.353 1.754,-0.749 2.004,-1.731 0.259,0.098 0.878,0.284 1.208,0.311 -0.407,1.048 0.042,2.201 0.972,2.432 0.016,1.034 -0.687,2.566 -0.525,3.618 0.118,0.774 1.171,0.889 2.082,0.818 0.074,0.81 -0.139,2.073 -0.117,2.879 0.054,1.91 1.355,2.612 3.309,2.471 1.562,-0.113 2.825,-1.067 2.9,-2.588 0.039,-0.781 -0.147,-1.905 -0.156,-2.84"
           id="path60"
           style="fill:#cf9a33;fill-opacity:1;fill-rule:evenodd;stroke:none" />
        <path
           d="m 44.6867,794.3589 17.906,-0.103 0,-16.809 -0.312,-1.245 -0.571,-0.987 -1.765,-1.193 -2.543,-1.089 -3.58,-1.713 -6.904,3.01 -1.297,0.881 -0.622,0.987 -0.312,1.296 0,16.965 z"
           id="path64"
           style="fill:#ffffff;fill-opacity:1;fill-rule:evenodd;stroke:none" />
        <path
           d="m 54.7948,790.541 -0.003,0.019 -0.011,0.065 -0.029,0.105 -0.038,0.014 -0.039,0.011 -0.04,0.01 -0.049,0.009 -0.048,0.007 -0.049,0.005 -0.323,0.018 -0.333,0.014 -0.085,0.007 -0.084,0.011 -0.08,0.011 -0.078,0.014 -0.095,0.019 -0.094,0.024 -0.081,0.024 -0.08,0.027 -0.05,0.019 -0.048,0.022 -0.047,0.023 -0.042,0.022 -0.04,0.025 -0.04,0.026 -0.027,0.019 -0.025,0.021 -0.024,0.021 -0.023,0.023 -0.023,0.026 -0.021,0.026 -0.021,0.029 -0.018,0.029 -0.015,0.023 -0.013,0.024 -0.012,0.025 -0.011,0.023 -0.01,0.024 -0.008,0.025 -0.03,0.101 -0.013,0.031 -0.005,0.007 -0.029,-0.004 -0.013,-0.02 -0.01,-0.026 -0.01,-0.027 -0.008,-0.025 -0.007,-0.027 -0.005,-0.026 -0.004,-0.026 -0.003,-0.027 -0.002,-0.038 0,-0.019 9.6e-4,-0.018 0.005,-0.041 0.003,-0.02 0.005,-0.021 0.013,-0.044 0.008,-0.022 0.008,-0.021 0.012,-0.028 0.013,-0.026 0.014,-0.026 0.015,-0.026 0.018,-0.026 0.017,-0.025 0.02,-0.024 0.021,-0.023 0.022,-0.024 0.023,-0.022 0.025,-0.021 0.025,-0.021 0.024,-0.018 0.026,-0.018 0.027,-0.015 0.026,-0.015 0.043,-0.022 0.043,-0.019 0.044,-0.016 0.048,-0.016 0.049,-0.014 0.048,-0.012 0.078,-0.015 0.077,-0.013 0.082,-0.01 0.083,-0.008 0.162,-0.008 0.075,0 0.076,9.6e-4 0.456,0.015 0.033,0 0.033,-9.6e-4 0.033,-0.002 0.097,-0.01 0.097,-0.012 0.202,-0.039 0.066,-0.017 z"
           id="path68"
           style="fill:#ef2c30;fill-opacity:1;fill-rule:evenodd;stroke:none" />
        <path
           d="m 55.6839,774.3195 -0.023,-0.004 -0.049,-0.014 -0.022,-0.007 -0.023,-0.01 -0.024,-0.011 -0.025,-0.012 -0.023,-0.012 -0.023,-0.015 -0.028,-0.02 -0.027,-0.023 -0.039,-0.04 -0.024,-0.028 -0.038,-0.051 -0.037,-0.05 -0.023,-0.034 0.039,0.008 0.052,0.013 0.059,0.015 0.058,0.013 0.029,0.004 0.01,0 0.246,0.005 0.021,0.004 0.027,0.013 0.022,0.039 0.002,0.012 0,0.033 -0.004,0.02 -0.007,0.028 -0.036,0.099 -0.018,0.018 -0.023,0.008 -0.024,0.002 -0.025,-0.003 z"
           id="path72"
           style="fill:#ef2c30;fill-opacity:1;fill-rule:nonzero;stroke:none" />
        <path
           d="m 48.9636,776.9385 -0.029,-0.002 -0.028,-10e-4 -0.028,-0.004 -0.028,-0.004 -0.027,-0.006 -0.02,-0.005 -0.02,-0.007 -0.02,-0.007 -0.019,-0.008 -0.019,-0.008 -0.037,-0.02 -0.075,-0.051 0.094,-0.021 0.054,-0.015 0.054,-0.017 0.033,-0.012 0.016,-0.008 0.03,-0.018 0.055,-0.033 0.056,-0.028 0.023,-0.009 0.024,-0.004 0.035,0.004 0.023,0.01 0.029,0.018 0.017,0.017 0.022,0.028 0.005,0.011 0.01,0.021 0.009,0.02 0.008,0.021 0.007,0.022 0.007,0.022 0,0.03 -0.009,0.017 -0.013,0.016 -0.021,0.009 -0.048,0.009 -0.047,0.006 -0.047,0.004 -0.047,0.003 -0.029,0 z"
           id="path76"
           style="fill:#ef2c30;fill-opacity:1;fill-rule:nonzero;stroke:none" />
        <path
           d="m 48.816,776.6469 -0.027,-0.002 -0.025,-0.003 -0.025,-0.003 -0.025,-0.006 -0.016,-0.003 -0.03,-0.01 -0.014,-0.006 -0.014,-0.007 -0.027,-0.015 -0.014,-0.008 -0.011,-0.006 -0.018,-0.017 -0.028,-0.026 -0.026,-0.027 -0.028,-0.029 0.041,9.6e-4 0.041,0.002 0.027,-0.002 0.017,-9.6e-4 0.018,-0.004 0.036,-0.009 0.033,-0.012 0.033,-0.012 0.033,-0.015 0.032,-0.014 0.023,-0.013 0.025,-0.01 0.025,-0.009 0.025,-0.009 0.026,-0.008 0.024,-0.002 0.026,9.6e-4 0.034,0.015 0.017,0.017 0.009,0.016 0.016,0.029 0.006,0.015 0.012,0.031 0.006,0.024 0.003,0.035 -0.003,0.025 -0.008,0.023 -0.022,0.029 -0.025,0.01 -0.076,0.008 -0.075,0.006 -0.027,9.6e-4 -0.024,0 z"
           id="path80"
           style="fill:#ef2c30;fill-opacity:1;fill-rule:nonzero;stroke:none" />
        <path
           d="m 48.7872,776.3472 -0.054,-0.004 -0.022,-0.003 -0.023,-0.004 -0.022,-0.003 -0.022,-0.007 -0.021,-0.006 -0.021,-0.009 -0.016,-0.004 -0.029,-0.015 -0.015,-0.01 -0.027,-0.018 -0.012,-0.009 -0.015,-0.011 -0.053,-0.053 0.109,-0.008 0.044,-0.003 0.043,-0.007 0.043,-0.006 0.012,-0.003 0.023,-0.007 0.011,-0.003 0.012,-0.006 0.053,-0.022 0.054,-0.021 0.055,-0.018 0.027,-0.003 0.025,0.01 0.017,0.019 0.005,0.014 0.005,0.012 0.007,0.027 0.007,0.027 0.003,0.033 -9.6e-4,0.011 -0.004,0.033 -0.009,0.022 -0.006,0.013 -0.029,0.029 -0.035,0.013 -0.066,9.6e-4 -0.053,-9.6e-4 z"
           id="path84"
           style="fill:#ef2c30;fill-opacity:1;fill-rule:nonzero;stroke:none" />
        <path
           d="m 48.7998,776.0889 -0.03,-0.004 -0.017,-0.003 -0.035,-0.012 -0.018,-0.006 -0.033,-0.015 -0.016,-0.009 -0.031,-0.02 -0.025,-0.017 -0.023,-0.021 -0.023,-0.019 -0.039,-0.039 -0.038,-0.04 -0.026,-0.031 0.041,0.002 0.043,0.005 0.037,0 0.024,0 0.024,-0.002 0.024,-0.005 0.047,-0.007 0.046,-0.012 0.047,-0.013 0.029,-0.008 0.029,-0.007 0.022,-0.003 0.024,-0.004 0.011,-9.6e-4 0.023,0 0.024,0.002 0.011,0.003 0.025,0.012 0.01,0.013 0.007,0.028 -0.005,0.035 -0.005,0.033 -0.008,0.033 -0.003,0.011 -0.004,0.012 -0.003,0.011 -0.018,0.032 -0.013,0.02 -0.01,0.008 -0.017,0.012 -0.021,0.011 -0.031,0.011 -0.023,0.004 -0.033,0 z"
           id="path88"
           style="fill:#ef2c30;fill-opacity:1;fill-rule:nonzero;stroke:none" />
        <path
           d="m 48.8592,775.7667 -0.061,-0.016 -0.06,-0.021 -0.03,-0.012 -0.03,-0.011 -0.029,-0.015 -0.029,-0.015 -0.045,-0.027 -0.02,-0.015 -0.022,-0.017 -0.03,-0.028 -0.029,-0.032 0.041,9.6e-4 0.06,0.01 0.037,0.003 0.018,0 0.036,-0.003 0.019,-0.003 0.035,-0.008 0.012,-0.003 0.034,-0.015 0.031,-0.02 0.02,-0.015 0.032,-0.03 0.024,-0.019 0.026,-0.021 0.027,-0.007 0.027,0.01 0.018,0.019 0.012,0.02 0.008,0.024 0.006,0.026 9.6e-4,0.014 0.003,0.027 0,0.019 -0.002,0.037 -9.6e-4,0.019 -0.009,0.051 -0.011,0.053 -0.025,0.027 -0.017,0.007 -0.077,-0.014 z"
           id="path92"
           style="fill:#ef2c30;fill-opacity:1;fill-rule:nonzero;stroke:none" />
        <path
           d="m 55.6263,775.3167 -0.029,-0.004 -0.027,-0.006 -0.026,-0.005 -0.036,-0.01 -0.037,-0.013 -0.037,-0.012 -0.035,-0.014 -0.028,-0.013 -0.028,-0.015 -0.027,-0.015 -0.026,-0.017 -0.016,-0.013 -0.018,-0.012 -0.053,-0.048 -0.035,-0.033 -0.035,-0.037 -0.026,-0.032 0.04,0.003 0.057,0.009 0.05,0.007 0.051,0.005 0.049,0 0.015,0 0.029,-0.002 0.029,-0.006 0.025,-0.007 0.119,-0.05 0.018,-0.007 0.019,-0.005 0.031,-0.004 0.019,0.005 0.019,0.016 0.011,0.024 0.003,0.012 0.002,0.024 0,0.031 -0.002,0.032 -0.005,0.039 -0.005,0.042 -0.005,0.034 -0.005,0.035 -0.009,0.035 -0.004,0.012 -0.021,0.015 -0.011,0 z"
           id="path96"
           style="fill:#ef2c30;fill-opacity:1;fill-rule:nonzero;stroke:none" />
        <path
           d="m 55.494,774.9405 -0.023,-9.6e-4 -0.045,-0.006 -0.022,-0.006 -0.022,-0.005 -0.02,-0.006 -0.021,-0.009 -0.02,-0.008 -0.019,-0.01 -0.018,-0.01 -0.018,-0.012 -0.021,-0.013 -0.019,-0.013 -0.02,-0.014 -0.052,-0.046 -0.031,-0.027 0.042,-0.002 0.04,9.6e-4 0.039,-9.6e-4 0.037,-0.003 0.041,-0.005 0.041,-0.007 0.045,-0.009 0.044,-0.01 0.125,-0.067 0.018,-0.007 0.02,-0.006 0.028,0.004 0.03,0.024 0.02,0.036 0.003,0.011 0.008,0.034 9.6e-4,0.022 -9.6e-4,0.023 -0.008,0.035 -0.009,0.021 -0.02,0.033 -0.017,0.018 -0.02,0.015 -0.042,0.018 -0.009,0.003 -0.029,0.004 -0.037,9.6e-4 -0.019,0 z"
           id="path100"
           style="fill:#ef2c30;fill-opacity:1;fill-rule:nonzero;stroke:none" />
        <path
           d="m 55.5993,774.6273 -0.036,-0.008 -0.035,-0.011 -0.035,-0.01 -0.034,-0.012 -0.032,-0.015 -0.032,-0.016 -0.031,-0.017 -0.042,-0.027 -0.021,-0.014 -0.019,-0.017 -0.02,-0.015 -0.012,-0.013 -0.056,-0.058 -0.027,-0.032 0.04,0.003 0.048,0.007 0.043,0.007 0.042,0.002 0.041,9.6e-4 0.023,-9.6e-4 0.022,-0.002 0.022,-0.005 0.197,-0.052 0.027,0.002 0.023,0.011 0.021,0.014 0.007,0.01 0.015,0.033 0.003,0.007 0.006,0.034 0,0.01 0,0.023 -0.002,0.011 -0.005,0.023 -0.005,0.022 -0.013,0.042 -0.007,0.023 -0.004,0.01 -0.017,0.018 -0.02,0.014 -0.026,0.004 -0.049,-0.006 z"
           id="path104"
           style="fill:#ef2c30;fill-opacity:1;fill-rule:nonzero;stroke:none" />
        <path
           d="m 55.7865,774.0387 -0.036,-0.012 -0.016,-0.007 -0.034,-0.017 -0.016,-0.009 -0.031,-0.022 -0.031,-0.021 -0.029,-0.021 -0.028,-0.023 -0.029,-0.025 -0.028,-0.027 -0.022,-0.02 -0.02,-0.024 -0.045,-0.056 -0.022,-0.038 0.04,0.01 0.072,0.027 0.024,0.008 0.025,0.006 0.025,0.005 0.025,0.005 0.026,0.003 0.037,9.6e-4 0.018,0 0.036,-0.003 0.019,-0.004 0.043,-0.007 0.042,-0.005 0.043,-0.003 0.044,-0.003 0.011,9.6e-4 0.037,0.029 0.004,0.033 -0.003,0.021 -0.014,0.044 -0.007,0.017 -0.017,0.033 -0.01,0.015 -0.025,0.034 -0.014,0.021 -0.017,0.018 -0.022,0.015 -0.023,0.005 -0.032,-0.004 z"
           id="path108"
           style="fill:#ef2c30;fill-opacity:1;fill-rule:nonzero;stroke:none" />
        <path
           d="m 48.0672,791.4168 0.017,-0.043 0.011,-0.029 0.009,-0.028 0.009,-0.03 0.006,-0.028 0.006,-0.033 9.6e-4,-0.031 0,-0.017 9.6e-4,-0.057 0.003,-0.058 0.005,-0.057 0.005,-0.023 0.008,-0.021 0.03,-0.038 0.021,-0.013 0.011,-0.004 0.024,-0.003 0.024,9.6e-4 0.021,0.006 0.011,0.004 0.02,0.012 0.017,0.015 0.015,0.017 0.01,0.018 0.007,0.02 0.009,0.03 0.002,0.022 -9.6e-4,0.036 -0.005,0.028 -0.008,0.027 -0.011,0.026 -0.014,0.026 -0.022,0.034 -0.016,0.023 -0.015,0.021 -0.029,0.034 -0.028,0.031 -0.027,0.026 -0.028,0.025 -0.028,0.022 -0.048,0.031 -0.037,0.018 0.014,-0.04 z"
           id="path112"
           style="fill:#ef2c30;fill-opacity:1;fill-rule:nonzero;stroke:none" />
        <path
           d="m 47.772,791.2782 0.094,-0.16 0.01,-0.032 0.004,-0.016 0.007,-0.035 9.6e-4,-0.02 0.003,-0.039 -0.003,-0.045 9.6e-4,-0.04 0.002,-0.04 0.015,-0.031 0.058,-0.011 0.022,-0.003 0.033,9.6e-4 0.03,0.007 0.018,0.006 0.023,0.013 0.009,0.007 0.019,0.017 0.014,0.02 0.006,0.011 0.008,0.024 0.002,0.038 -0.002,0.018 -0.033,0.067 -0.021,0.036 -0.023,0.035 -0.014,0.018 -0.014,0.017 -0.013,0.018 -0.017,0.015 -0.015,0.015 -0.016,0.013 -0.016,0.013 -0.017,0.013 -0.018,0.01 -0.062,0.035 -0.037,0.005 -0.058,0 z"
           id="path116"
           style="fill:#ef2c30;fill-opacity:1;fill-rule:nonzero;stroke:none" />
        <path
           d="m 47.6073,791.0406 0.014,-0.028 0.014,-0.03 0.012,-0.028 0.01,-0.031 0.009,-0.031 0.009,-0.033 0.006,-0.032 0.006,-0.034 0.004,-0.028 0.006,-0.03 0.007,-0.029 0.008,-0.028 0.01,-0.029 0.025,-0.03 0.036,-0.008 0.013,0.002 0.013,0.005 0.021,0.015 0.018,0.018 0.016,0.02 0.019,0.039 0.004,0.01 0.005,0.043 0.002,0.022 -0.002,0.024 -0.004,0.021 -0.008,0.028 -0.006,0.017 -0.007,0.017 -0.015,0.032 -0.011,0.02 -0.025,0.037 -0.013,0.018 -0.014,0.016 -0.015,0.016 -0.016,0.015 -0.016,0.015 -0.021,0.015 -0.01,0.007 -0.023,0.013 -0.011,0.005 -0.021,0.007 -0.033,0.01 -0.069,0.019 0.053,-0.097 z"
           id="path120"
           style="fill:#ef2c30;fill-opacity:1;fill-rule:nonzero;stroke:none" />
        <path
           d="m 48.1302,786.5334 0.03,-0.034 0.019,-0.03 0.011,-0.018 0.01,-0.02 0.01,-0.023 0.011,-0.023 0.008,-0.025 0.014,-0.041 0.012,-0.043 -0.003,-0.164 0.003,-0.024 0.01,-0.023 0.017,-0.018 0.01,-0.005 0.011,-0.008 0.023,-0.006 0.025,-9.6e-4 0.022,0.005 0.024,0.01 0.034,0.017 0.011,0.007 0.01,0.007 0.011,0.008 0.016,0.015 0.029,0.037 0.015,0.032 0.005,0.011 0.004,0.011 0.004,0.025 0,0.016 -0.004,0.033 -0.003,0.011 -0.005,0.011 -0.021,0.038 -0.028,0.033 -0.029,0.033 -0.031,0.032 -0.039,0.037 -0.022,0.016 -0.022,0.015 -0.031,0.021 -0.017,0.008 -0.033,0.015 -0.024,0.008 -0.046,0.014 -0.035,0.007 -0.039,0.006 0.023,-0.033 z"
           id="path124"
           style="fill:#ef2c30;fill-opacity:1;fill-rule:nonzero;stroke:none" />
        <path
           d="m 47.8026,786.3444 0.062,-0.083 0.014,-0.02 0.013,-0.02 0.013,-0.022 0.02,-0.044 0.005,-0.012 0.007,-0.026 0.008,-0.038 0.012,-0.104 0.013,-0.094 0.006,-0.014 0.059,0.005 0.061,0.026 0.02,0.006 0.02,0.009 0.038,0.023 0.018,0.016 0.015,0.02 0.006,0.011 0.012,0.035 0.002,0.025 -0.004,0.023 -0.009,0.03 -0.006,0.018 -0.008,0.019 -0.008,0.017 -0.01,0.016 -0.011,0.016 -0.022,0.031 -0.024,0.027 -0.028,0.025 -0.028,0.021 -0.03,0.018 -0.015,0.008 -0.014,0.007 -0.014,0.005 -0.031,0.01 -0.015,0.004 -0.017,0.003 -0.016,0.002 -0.026,0.002 -0.088,-9.6e-4 z"
           id="path128"
           style="fill:#ef2c30;fill-opacity:1;fill-rule:nonzero;stroke:none" />
        <path
           d="m 47.1231,785.5146 0.06,-0.077 0.025,-0.032 0.021,-0.03 0.021,-0.035 0.019,-0.033 0.006,-0.011 0.005,-0.011 0.004,-0.011 0.01,-0.036 0.013,-0.064 0.01,-0.053 0.014,-0.052 0.022,-0.028 0.013,-0.005 0.035,0.005 0.021,0.01 0.021,0.01 0.011,0.005 0.021,0.015 0.019,0.017 0.016,0.019 0.018,0.029 0.013,0.03 0.007,0.032 0.002,0.022 0,0.023 -0.002,0.022 -0.005,0.023 -0.007,0.02 -0.005,0.011 -0.018,0.035 -0.015,0.023 -0.016,0.018 -0.016,0.019 -0.02,0.014 -0.02,0.015 -0.015,0.01 -0.015,0.008 -0.016,0.007 -0.032,0.013 -0.017,0.006 -0.033,0.011 -0.099,0.02 -0.061,0.015 -0.039,0.005 0.024,-0.034 z"
           id="path132"
           style="fill:#ef2c30;fill-opacity:1;fill-rule:nonzero;stroke:none" />
        <path
           d="m 47.5902,786.1014 -0.028,-0.005 -0.039,-0.011 -0.058,-0.018 0.076,-0.052 0.018,-0.01 0.013,-0.011 0.013,-0.011 0.024,-0.026 0.011,-0.014 0.01,-0.015 0.01,-0.014 0.012,-0.022 0.013,-0.022 0.02,-0.045 0.008,-0.024 0.008,-0.024 0.007,-0.022 0.008,-0.024 0.008,-0.021 0.011,-0.024 0.01,-0.013 0.016,-0.011 0.043,0.014 0.019,0.007 0.042,0.02 0.019,0.013 0.018,0.012 0.017,0.016 0.027,0.037 0.006,0.012 0.007,0.036 -0.002,0.025 -0.005,0.02 -0.008,0.018 -0.026,0.037 -0.021,0.027 -0.023,0.024 -0.024,0.025 -0.013,0.011 -0.029,0.025 -0.032,0.02 -0.011,0.006 -0.013,0.006 -0.026,0.012 -0.026,0.008 -0.024,0.005 -0.027,0.004 -0.036,0.002 -0.023,-0.003 z"
           id="path136"
           style="fill:#ef2c30;fill-opacity:1;fill-rule:nonzero;stroke:none" />
        <path
           d="m 47.4273,785.8296 -0.041,-0.002 -0.04,-0.003 -0.041,-0.006 -0.04,-0.009 0.034,-0.023 0.017,-0.008 0.016,-0.009 0.01,-0.007 0.059,-0.073 0.015,-0.02 0.016,-0.023 0.008,-0.013 0.007,-0.013 0.012,-0.026 0.007,-0.013 0.011,-0.033 0.011,-0.034 0.006,-0.017 0.006,-0.017 0.008,-0.016 0.015,-0.033 0.026,-0.036 0.023,-0.011 0.013,-9.6e-4 0.013,0 0.013,0.004 0.03,0.017 0.016,0.016 0.027,0.033 0.01,0.019 0.017,0.04 0.004,0.011 0.005,0.034 0.004,0.024 9.6e-4,0.023 0.001,0.025 -0.006,0.036 -0.011,0.031 -0.011,0.021 -0.028,0.035 -0.017,0.014 -0.021,0.014 -0.011,0.007 -0.012,0.008 -0.023,0.01 -0.024,0.01 -0.025,0.005 -0.036,0.005 -0.025,0.002 -0.024,0.002 -0.025,0 z"
           id="path140"
           style="fill:#ef2c30;fill-opacity:1;fill-rule:nonzero;stroke:none" />
        <path
           d="m 48.3381,791.433 0.007,-0.031 0.007,-0.03 0.004,-0.031 0.004,-0.03 0.002,-0.032 0.002,-0.031 9.6e-4,-0.027 0.003,-0.028 0.003,-0.028 0.005,-0.027 0.003,-0.011 0.011,-0.021 0.017,-0.016 0.012,-0.008 0.025,-0.006 0.025,0 0.033,0.007 0.02,0.007 0.03,0.015 0.029,0.022 0.016,0.018 0.015,0.02 0.01,0.021 0.003,0.012 0.004,0.013 0,0.046 -0.002,0.01 -0.006,0.02 -0.008,0.021 -0.01,0.024 -0.013,0.024 -0.014,0.023 -0.013,0.022 -0.027,0.038 -0.026,0.031 -0.014,0.013 -0.016,0.014 -0.021,0.018 -0.025,0.015 -0.025,0.013 -0.031,0.012 -0.027,0.008 -0.056,0.017 0.043,-0.147 z"
           id="path144"
           style="fill:#ef2c30;fill-opacity:1;fill-rule:nonzero;stroke:none" />
        <path
           d="m 48.5829,791.6409 0.023,-0.068 0.012,-0.036 0.009,-0.035 0.009,-0.037 0.006,-0.035 0.004,-0.03 0.003,-0.03 9.6e-4,-0.029 0,-0.029 -9.6e-4,-0.032 9.6e-4,-0.031 9.6e-4,-0.032 0.007,-0.021 0.015,-0.02 0.011,-0.007 0.041,-0.008 0.028,-0.002 0.029,-9.6e-4 0.027,0 0.012,0 0.031,0.006 0.031,0.012 0.02,0.012 0.015,0.019 0.006,0.012 0.005,0.024 -9.6e-4,0.025 -0.031,0.068 -0.029,0.053 -0.03,0.052 -0.018,0.029 -0.02,0.028 -0.021,0.027 -0.012,0.013 -0.011,0.014 -0.025,0.024 -0.029,0.023 -0.054,0.038 -0.041,0.025 -0.035,0.02 0.011,-0.041 z"
           id="path148"
           style="fill:#ef2c30;fill-opacity:1;fill-rule:nonzero;stroke:none" />
        <path
           d="m 58.4947,776.2162 c -0.023,0.053 -0.045,0.105 -0.065,0.16 -0.102,0.324 -0.119,0.679 -0.153,1.016 -0.058,0.604 -0.122,1.209 -0.14,1.816 l -0.002,0.274 0,0.272 0.258,0.011 c -0.003,0.156 0.012,0.307 0.024,0.464 -0.002,0.074 -0.038,0.123 -0.072,0.19 -0.107,0.185 -0.23,0.36 -0.316,0.557 -0.117,0.296 -0.168,0.628 -0.23,0.941 -0.065,0.392 -0.116,0.787 -0.18,1.18 -0.119,0.575 -0.309,1.135 -0.419,1.712 -0.026,0.17 -0.01,0.323 0.032,0.489 0.129,0.439 0.264,0.873 0.408,1.307 l 0.052,0.167 c 0.054,0.202 0.099,0.4 0.126,0.608 0.014,0.192 0.013,0.373 -0.024,0.562 l -0.068,0.302 -0.072,0.301 -0.054,0.218 c 0.007,0.13 0.013,0.227 0.056,0.348 0.084,0.227 0.177,0.449 0.24,0.683 0.131,0.605 0.104,1.229 0.007,1.837 l -0.069,0.333 c 0.027,0.027 0.054,0.053 0.079,0.081 0.27,0.328 0.198,0.736 -0.153,0.962 -0.194,0.107 -0.384,0.125 -0.592,0.047 l -0.168,-0.081 -0.182,0.067 c -0.217,0.068 -0.423,0.108 -0.649,0.127 -0.465,0.019 -0.955,0.037 -1.403,-0.111 -0.232,-0.087 -0.43,-0.243 -0.651,-0.35 -0.104,-0.045 -0.182,-0.04 -0.295,-0.04 -0.283,-0.008 -0.568,-0.026 -0.85,-0.04 -0.057,-0.008 -0.102,-0.018 -0.123,-0.079 -0.009,-0.117 0.033,-0.212 0.046,-0.327 0.027,-0.184 0.125,-0.335 0.235,-0.481 0.035,-0.04 0.067,-0.07 0.108,-0.102 -0.013,-0.161 -0.004,-0.283 0.092,-0.415 l 0.018,-0.022 0.019,-0.021 0.06,-0.062 c 0.024,0.12 0.053,0.208 0.149,0.289 0.035,0.026 0.073,0.046 0.112,0.066 -0.013,-0.106 -0.045,-0.284 0.096,-0.317 0.099,-0.021 0.155,-0.025 0.234,0.035 0.032,-0.086 0.067,-0.091 0.151,-0.116 0.074,-0.019 0.138,-0.045 0.2,0.015 0.026,0.027 0.05,0.049 0.078,0.073 0.105,-0.102 0.25,-0.235 0.302,-0.381 0.034,-0.129 0.056,-0.262 0.062,-0.396 0.002,-0.077 0.034,-0.166 -0.058,-0.176 l -0.055,-0.006 -0.035,-0.004 c -0.026,0.105 -0.062,0.19 -0.17,0.227 -0.117,0.029 -0.223,0.021 -0.283,-0.097 l -0.01,-0.02 c -0.03,0.055 -0.054,0.073 -0.114,0.091 -0.118,0.017 -0.238,-0.022 -0.275,-0.148 -0.065,0.064 -0.104,0.104 -0.123,0.196 l -0.007,0.043 c -0.102,-0.09 -0.17,-0.165 -0.186,-0.307 -0.003,-0.046 0.007,-0.093 -0.049,-0.095 -0.151,-0.053 -0.077,-0.203 0.02,-0.269 0.159,-0.084 0.33,-0.078 0.506,-0.088 l 0.382,-0.014 0.264,-0.011 c -0.008,-0.053 -0.015,-0.104 -0.031,-0.156 -0.066,-0.188 -0.243,-0.328 -0.406,-0.427 l -0.446,-0.26 -0.248,-0.157 c -0.196,-0.158 -0.391,-0.314 -0.574,-0.488 -0.093,-0.097 -0.174,-0.195 -0.255,-0.303 -0.253,-0.371 -0.411,-0.794 -0.458,-1.246 -0.007,-0.109 -0.007,-0.213 0,-0.323 l 0.03,-0.282 0.313,0.122 0.041,-0.169 c -0.446,-0.221 -0.886,-0.448 -1.323,-0.686 -0.323,-0.172 -0.645,-0.353 -0.979,-0.5 -0.197,-0.079 -0.451,-0.163 -0.665,-0.119 -0.103,0.027 -0.134,0.084 -0.185,0.174 l -0.162,0.302 -0.141,0.24 -0.152,0.233 -0.157,0.215 -0.168,0.205 -0.13,0.123 c -0.02,-0.096 -0.076,-0.141 -0.162,-0.177 -0.055,0 -0.132,0.04 -0.159,-0.034 -0.026,-0.055 -0.043,-0.067 -0.097,-0.093 l -0.079,-0.031 -0.08,-0.048 c -0.026,-0.097 -0.068,-0.11 -0.15,-0.149 l -0.066,-0.031 c -0.022,-0.096 -0.025,-0.185 -0.11,-0.246 l -0.021,-0.01 -0.025,-0.013 -0.026,-0.009 c -0.004,-0.053 -0.004,-0.106 -0.01,-0.16 -0.022,-0.107 -0.088,-0.152 -0.193,-0.168 0.297,-0.429 0.597,-0.866 0.964,-1.237 0.173,-0.162 0.345,-0.293 0.544,-0.419 0.185,-0.105 0.365,-0.191 0.566,-0.26 0.2,-0.058 0.389,-0.09 0.597,-0.11 0.737,-0.037 1.47,0.118 2.183,0.292 l 0.327,0.091 0.323,0.103 0.381,0.137 0.09,-0.183 -0.574,-0.257 0.103,-0.346 c 0.125,-0.361 0.271,-0.735 0.496,-1.042 l 0.031,-0.039 0.033,-0.037 0.295,-0.288 0.185,-0.217 0.012,-0.012 0.098,-0.074 -0.147,-0.092 -0.218,0.193 -0.108,0.096 -0.117,0.106 c -0.21,-0.096 -0.418,-0.192 -0.623,-0.296 -0.195,-0.11 -0.371,-0.224 -0.549,-0.36 -0.152,-0.129 -0.293,-0.261 -0.435,-0.402 -0.272,-0.299 -0.534,-0.602 -0.733,-0.958 -0.091,-0.18 -0.161,-0.357 -0.221,-0.552 -0.068,-0.26 -0.103,-0.514 -0.125,-0.782 -0.008,-0.286 9.6e-4,-0.558 0.025,-0.842 0.03,-0.239 0.07,-0.471 0.118,-0.708 0.023,-0.162 -0.013,-0.28 -0.182,-0.311 -0.25,-0.01 -0.445,0.187 -0.622,0.339 -0.183,0.155 -0.343,0.303 -0.587,0.327 -0.086,0.005 -0.172,-9.6e-4 -0.258,-0.007 0.012,-0.093 -0.019,-0.152 -0.086,-0.216 -0.028,-0.015 -0.055,-0.025 -0.086,-0.033 0.04,-0.095 0.041,-0.15 -0.015,-0.238 -0.029,-0.026 -0.057,-0.05 -0.084,-0.076 0.011,-0.011 0.022,-0.021 0.031,-0.034 0.029,-0.081 0.019,-0.168 -0.062,-0.21 0.01,-0.031 0.016,-0.036 0.034,-0.06 0.021,-0.044 0.067,-0.164 0.029,-0.204 l -0.025,-0.018 c 0.044,-0.086 0.056,-0.17 0.048,-0.268 -0.007,-0.055 -0.031,-0.075 -0.072,-0.107 0.136,-0.07 0.273,-0.149 0.419,-0.197 l 0.371,-0.11 0.167,-0.053 c 0.437,-0.158 0.846,-0.381 1.28,-0.545 0.073,-0.024 0.146,-0.048 0.221,-0.062 0.063,-0.01 0.125,-0.012 0.188,-0.012 0.195,0.012 0.423,0.114 0.522,0.295 0.115,0.226 0.154,0.489 0.205,0.735 0.048,0.192 0.1,0.375 0.163,0.561 0.059,0.153 0.121,0.3 0.192,0.448 0.129,0.244 0.265,0.462 0.43,0.684 0.14,0.173 0.283,0.327 0.446,0.48 0.17,0.148 0.339,0.27 0.534,0.38 l 0.083,0.044 0.342,0.159 c -0.077,0.337 -0.149,0.67 -0.211,1.01 -0.035,0.217 -0.069,0.421 -0.063,0.641 0.004,0.086 0.012,0.169 0.029,0.253 l 0.035,0.141 0.175,-0.044 c 0.044,-0.611 0.12,-1.214 0.293,-1.801 0.055,-0.164 0.115,-0.32 0.182,-0.479 l 0.107,-0.229 c 0.107,-0.205 0.218,-0.398 0.343,-0.592 0.098,-0.138 0.197,-0.27 0.306,-0.4 0.234,-0.251 0.496,-0.473 0.719,-0.735 0.032,-0.044 0.063,-0.088 0.09,-0.134 0.113,-0.21 0.034,-0.386 -0.182,-0.455 -0.222,-0.062 -0.441,-0.068 -0.669,-0.082 0.016,-0.095 0.034,-0.185 0.037,-0.281 -0.009,-0.066 -0.026,-0.079 -0.082,-0.109 0.077,-0.081 0.106,-0.112 0.085,-0.225 l -0.02,-0.067 c 0.062,-0.092 0.09,-0.176 0.055,-0.288 -0.016,-0.04 0.006,-0.029 0.036,-0.056 0.028,-0.045 0.054,-0.124 0.055,-0.181 -0.015,-0.054 -0.036,-0.059 0.022,-0.087 0.059,-0.043 0.139,-0.155 0.124,-0.234 l -0.011,-0.029 -0.006,-0.013 c 0.073,-0.001 0.146,-0.005 0.218,9.6e-4 0.334,0.044 0.612,0.184 0.894,0.368 l 0.175,0.127 0.169,0.134 0.161,0.143 0.154,0.152 c 0.243,0.29 0.491,0.578 0.729,0.873 0.02,0.027 0.039,0.052 0.057,0.078 0.073,0.12 0.117,0.266 0.07,0.403 -0.07,0.185 -0.104,0.364 -0.07,0.181"
           id="path160"
           style="fill:#000000;fill-opacity:1;fill-rule:evenodd;stroke:none" />
        <path
           d="m 48.9224,791.2176 c -0.013,-0.015 -0.027,-0.03 -0.042,-0.042 -0.053,-0.039 -0.141,-0.016 -0.199,-0.003 -0.022,0.005 -0.042,0.032 -0.055,0.049 -0.006,-0.031 -0.013,-0.062 -0.034,-0.087 -0.035,-0.037 -0.133,-0.086 -0.179,-0.047 -0.011,0.011 -0.02,0.02 -0.03,0.032 -0.014,-0.043 -0.018,-0.079 -0.025,-0.123 -0.008,-0.058 -0.085,-0.1 -0.137,-0.097 -0.022,9.6e-4 -0.057,0.043 -0.063,0.041 -0.003,-0.002 -0.006,-0.002 -0.009,-0.004 -0.005,-0.029 -0.012,-0.059 -0.033,-0.08 -0.063,-0.066 -0.13,-0.056 -0.21,-0.039 -0.014,-0.038 -0.018,-0.069 -0.025,-0.109 -0.006,-0.037 -0.054,-0.095 -0.094,-0.095 -0.013,0 -0.024,10e-4 -0.036,0.004 0.091,-0.151 0.165,-0.28 0.249,-0.435 0.022,-0.04 0.039,-0.08 0.052,-0.123 l 0.24,-0.763 c 0.127,-0.401 0.323,-0.78 0.609,-1.089 0.148,-0.161 0.282,-0.288 0.448,-0.428 0.533,-0.447 1.1,-0.849 1.682,-1.227 0.314,-0.205 0.637,-0.396 0.963,-0.58 0,0.281 -0.005,0.562 0.014,0.842 0.02,0.281 0.123,0.538 0.237,0.793 0.098,0.219 0.209,0.439 0.354,0.632 0.031,0.043 0.068,0.083 0.103,0.123 -0.348,0.104 -0.695,0.209 -1.043,0.308 l -0.777,0.221 c -0.28,0.08 -0.553,0.19 -0.805,0.342 -0.121,0.074 -0.215,0.152 -0.313,0.257 -0.065,0.072 -0.111,0.15 -0.143,0.242 l -0.35,1.019 c -0.053,0.154 -0.136,0.302 -0.262,0.408 -0.026,0.022 -0.058,0.04 -0.087,0.058"
           id="path164"
           style="fill:#000000;fill-opacity:1;fill-rule:evenodd;stroke:none" />
        <path
           d="m 53.3036,791.605 c -0.003,-0.021 -0.005,-0.039 -0.007,-0.06 -9.6e-4,-0.014 -9.6e-4,-0.026 -0.002,-0.04 0,-0.016 0,-0.029 0.002,-0.045 0.002,-0.019 0.006,-0.035 0.01,-0.052 0.004,-0.019 0.009,-0.034 0.016,-0.051 0.005,-0.015 0.011,-0.027 0.018,-0.041 0.006,-0.01 0.011,-0.02 0.019,-0.031 0.01,-0.016 0.019,-0.029 0.03,-0.045 0.006,0.016 0.01,0.03 0.017,0.046 0.004,0.011 0.008,0.021 0.013,0.032 0.006,0.013 0.012,0.024 0.02,0.037 0.008,0.013 0.015,0.024 0.025,0.036 0.01,0.012 0.019,0.022 0.03,0.032 0.01,0.01 0.02,0.018 0.031,0.027 0.009,0.007 0.017,0.012 0.027,0.02 0.013,0.009 0.025,0.017 0.039,0.026 -0.015,0.004 -0.028,0.008 -0.044,0.013 -0.008,0.002 -0.013,0.004 -0.021,0.007 -0.011,0.003 -0.021,0.007 -0.032,0.01 -0.013,0.005 -0.024,0.009 -0.037,0.014 -0.01,0.004 -0.019,0.008 -0.029,0.012 -0.013,0.005 -0.025,0.01 -0.039,0.016 -0.01,0.004 -0.018,0.008 -0.029,0.012 -0.02,0.009 -0.036,0.017 -0.057,0.025"
           id="path168"
           style="fill:#ffffff;fill-opacity:1;fill-rule:evenodd;stroke:none" />
        <path
           d="m 53.7495,791.4541 c -0.003,-0.017 -0.005,-0.031 -0.008,-0.048 -0.002,-0.013 -0.004,-0.024 -0.006,-0.036 -0.002,-0.016 -0.003,-0.031 -0.003,-0.047 0,-0.015 10e-4,-0.027 0.004,-0.041 0.002,-0.011 0.005,-0.019 0.009,-0.029 0.002,-0.007 0.006,-0.012 0.012,-0.017 0.003,-0.003 0.005,-0.005 0.009,-0.007 0.01,-0.005 0.018,-0.009 0.029,-0.014 0.01,-0.004 0.019,-0.008 0.03,-0.011 0.011,-0.003 0.02,-0.005 0.031,-0.007 0.013,-0.002 0.025,-0.003 0.038,-9.6e-4 0.012,9.6e-4 0.023,0.004 0.034,0.008 0.011,0.005 0.021,0.01 0.03,0.018 0.01,0.007 0.017,0.015 0.025,0.024 0.008,0.01 0.013,0.019 0.019,0.03 0.005,0.01 0.009,0.019 0.012,0.03 0.002,0.008 0.004,0.015 0.007,0.023 0.002,0.012 0.004,0.022 0.006,0.033 -0.013,0.007 -0.024,0.013 -0.038,0.019 -0.006,0.004 -0.012,0.006 -0.018,0.009 -0.011,0.005 -0.021,0.008 -0.032,0.012 -0.012,0.005 -0.022,0.008 -0.034,0.012 -0.009,0.002 -0.017,0.005 -0.026,0.008 -0.015,0.003 -0.027,0.007 -0.041,0.01 l -0.089,0.022 z"
           id="path172"
           style="fill:#ffffff;fill-opacity:1;fill-rule:evenodd;stroke:none" />
        <path
           d="m 54.0828,791.3382 c -0.004,-0.017 -0.007,-0.03 -0.009,-0.048 -0.003,-0.012 -0.004,-0.023 -0.006,-0.036 0,-0.01 0,-0.019 0.003,-0.028 0.002,-0.011 0.005,-0.019 0.009,-0.029 0.004,-0.008 0.007,-0.014 0.012,-0.02 0.005,-0.006 0.009,-0.011 0.015,-0.015 0.008,-0.007 0.015,-0.011 0.023,-0.015 0.01,-0.005 0.018,-0.009 0.03,-0.013 0.011,-0.004 0.022,-0.007 0.035,-0.011 0.012,-0.002 0.023,-0.005 0.036,-0.006 0.014,-0.003 0.026,-0.004 0.04,-0.004 0.01,0 0.019,9.6e-4 0.029,0.004 0.006,10e-4 0.011,0.003 0.017,0.005 0.008,0.004 0.013,0.008 0.02,0.012 0.007,0.005 0.012,0.009 0.018,0.015 0.004,0.004 0.007,0.008 0.01,0.013 0.002,0.004 0.004,0.008 0.006,0.012 0.003,0.008 0.005,0.014 0.007,0.023 -0.007,0.007 -0.014,0.012 -0.022,0.019 -0.004,0.004 -0.008,0.006 -0.012,0.009 -0.014,0.01 -0.025,0.018 -0.04,0.027 -0.022,0.013 -0.04,0.022 -0.062,0.033 -0.02,0.01 -0.037,0.017 -0.057,0.024 -0.014,0.006 -0.025,0.01 -0.04,0.015 -0.007,0.002 -0.013,0.003 -0.02,0.005 -0.015,0.003 -0.027,0.006 -0.042,0.009"
           id="path176"
           style="fill:#ffffff;fill-opacity:1;fill-rule:evenodd;stroke:none" />
        <path
           d="m 53.5614,790.1167 c 0.004,-0.006 0.008,-0.01 0.013,-0.016 0.003,-0.002 0.004,-0.005 0.008,-0.006 0.005,-0.003 0.009,-0.005 0.015,-0.006 0.01,-0.002 0.019,-0.002 0.029,-0.002 0.02,0.003 0.037,0.005 0.057,0.008 0.024,0.004 0.043,0.008 0.066,0.013 0.011,0.002 0.019,0.005 0.028,0.009 0.007,0.003 0.014,0.005 0.021,0.009 0.004,0.002 0.007,0.004 0.01,0.007 0.002,0.003 0.005,0.007 0.007,0.011 0.002,0.003 0.002,0.006 0.002,0.01 0,0.003 0,0.007 -0.002,0.011 -0.002,0.003 -0.003,0.005 -0.005,0.007 -0.003,0.004 -0.005,0.007 -0.009,0.011 -0.013,0.007 -0.023,0.014 -0.035,0.023 -0.006,0.004 -0.011,0.008 -0.017,0.013 -0.007,0.007 -0.013,0.012 -0.02,0.02 -0.008,0.009 -0.015,0.018 -0.023,0.029 -0.007,0.01 -0.014,0.02 -0.02,0.032 -0.006,0.009 -0.011,0.017 -0.015,0.028 -0.003,0.006 -0.006,0.013 -0.008,0.02 -0.005,0.014 -0.008,0.027 -0.013,0.042 -0.009,-0.013 -0.018,-0.024 -0.027,-0.036 -0.006,-0.008 -0.01,-0.015 -0.016,-0.023 -0.007,-0.011 -0.012,-0.021 -0.017,-0.032 -0.006,-0.014 -0.011,-0.026 -0.014,-0.041 -0.005,-0.014 -0.008,-0.026 -0.01,-0.04 -0.002,-0.013 -0.004,-0.025 -0.005,-0.038 0,-0.008 0,-0.016 0,-0.025 -9.6e-4,-0.013 0,-0.024 0,-0.038"
           id="path180"
           style="fill:#ffffff;fill-opacity:1;fill-rule:evenodd;stroke:none" />
        <path
           d="m 54.2413,790.1608 c 0.007,-0.003 0.014,-0.005 0.022,-0.008 0.003,-9.6e-4 0.005,-0.002 0.009,-0.002 0.008,-0.002 0.015,-0.002 0.022,-0.002 0.015,0 0.026,0 0.039,0.002 l 0.127,0.014 c 0.022,0.002 0.04,0.005 0.06,0.01 0.013,0.003 0.022,0.006 0.034,0.011 0.002,9.6e-4 0.004,0.002 0.006,0.004 0.008,0.005 0.014,0.008 0.02,0.013 0.002,0.008 0.003,0.015 0.004,0.023 l 0,0.009 c -9.6e-4,0.009 -0.003,0.016 -0.006,0.023 -0.006,0.014 -0.013,0.024 -0.021,0.036 -0.012,0.016 -0.024,0.029 -0.038,0.041 -0.015,0.013 -0.028,0.022 -0.044,0.03 -0.02,0.009 -0.036,0.014 -0.056,0.015 -0.022,9.6e-4 -0.041,-9.6e-4 -0.061,-0.008 -0.016,-0.005 -0.029,-0.012 -0.042,-0.021 -0.014,-0.011 -0.024,-0.021 -0.035,-0.035 -0.01,-0.014 -0.018,-0.028 -0.024,-0.044 -0.007,-0.017 -0.011,-0.033 -0.013,-0.051 0,-0.009 -0.001,-0.017 -0.002,-0.026 0,-0.012 -9.6e-4,-0.022 -9.6e-4,-0.034"
           id="path184"
           style="fill:#ffffff;fill-opacity:1;fill-rule:evenodd;stroke:none" />
        <path
           d="m 53.8774,790.1434 c 0.005,-0.004 0.01,-0.008 0.015,-0.011 0.002,-0.002 0.003,-0.002 0.005,-0.003 0.008,-0.003 0.015,-0.004 0.023,-0.005 0.017,-9.6e-4 0.032,0 0.049,0.002 0.006,0 0.011,0 0.018,9.6e-4 0.038,9.6e-4 0.071,0.002 0.108,0.003 0.02,0 0.034,0.002 0.052,0.007 0.01,0.003 0.017,0.006 0.025,0.013 10e-4,10e-4 0.003,0.003 0.004,0.004 0.004,0.006 0.006,0.011 0.009,0.017 9.6e-4,0.013 9.6e-4,0.023 0,0.036 0,0.006 -0.001,0.011 -0.003,0.017 -9.6e-4,0.005 -0.003,0.009 -0.005,0.014 -0.005,0.01 -0.01,0.019 -0.015,0.028 -0.004,0.007 -0.008,0.013 -0.014,0.02 -0.005,0.006 -0.008,0.011 -0.014,0.017 -0.009,0.01 -0.017,0.017 -0.028,0.023 -0.011,0.007 -0.021,0.011 -0.034,0.014 -0.015,0.003 -0.028,0.004 -0.044,0.003 -0.017,-9.6e-4 -0.032,-0.005 -0.049,-0.01 -0.01,-0.004 -0.019,-0.008 -0.029,-0.013 -0.01,-0.005 -0.019,-0.009 -0.029,-0.015 -0.01,-0.007 -0.018,-0.014 -0.028,-0.021 -0.004,-0.004 -0.007,-0.007 -0.009,-0.011 -0.005,-0.008 -0.008,-0.016 -0.009,-0.025 -0.002,-0.018 -0.002,-0.034 -0.002,-0.053 9.6e-4,-0.008 9.6e-4,-0.014 0.002,-0.023 9.6e-4,-0.01 9.6e-4,-0.019 0.002,-0.029"
           id="path188"
           style="fill:#ffffff;fill-opacity:1;fill-rule:evenodd;stroke:none" />
        <path
           d="m 56.9851,792.2791 c 0.029,0.029 0.054,0.052 0.083,0.079 0.015,0.013 0.029,0.025 0.044,0.037 0.02,0.016 0.038,0.03 0.059,0.044 0.028,0.02 0.051,0.035 0.08,0.052 0.028,0.017 0.053,0.031 0.081,0.047 0.024,0.012 0.044,0.022 0.068,0.032 0.017,0.008 0.032,0.014 0.049,0.021 0.036,0.013 0.066,0.024 0.102,0.036 l -0.051,0.2 c -0.046,-0.006 -0.084,-0.012 -0.129,-0.02 -0.023,-0.004 -0.041,-0.009 -0.063,-0.016 -0.031,-0.009 -0.056,-0.019 -0.085,-0.032 -0.034,-0.017 -0.064,-0.032 -0.097,-0.053 -0.035,-0.021 -0.062,-0.041 -0.094,-0.066 -0.025,-0.018 -0.043,-0.036 -0.065,-0.058 -0.019,-0.02 -0.034,-0.037 -0.05,-0.058 -0.029,-0.036 -0.053,-0.066 -0.08,-0.104 l 0.148,-0.141 z"
           id="path192"
           style="fill:#ffffff;fill-opacity:1;fill-rule:evenodd;stroke:none" />
        <path
           d="m 55.6975,791.7874 c -0.012,0.01 -0.021,0.018 -0.033,0.028 -0.006,0.005 -0.01,0.009 -0.016,0.015 -0.016,0.016 -0.03,0.031 -0.044,0.05 -0.021,0.027 -0.037,0.05 -0.055,0.08 -0.016,0.025 -0.03,0.047 -0.045,0.073 -0.021,0.034 -0.038,0.064 -0.058,0.099 -0.019,0.034 -0.037,0.062 -0.058,0.096 -0.017,0.026 -0.031,0.047 -0.049,0.072 -0.021,0.031 -0.042,0.055 -0.068,0.081 -0.021,0.019 -0.038,0.033 -0.062,0.046 -0.027,0.014 -0.05,0.024 -0.079,0.033 -0.042,0.012 -0.08,0.02 -0.124,0.026 -0.034,0.005 -0.063,0.007 -0.097,0.009 -0.029,9.6e-4 -0.055,0 -0.085,-0.002 -0.019,-9.6e-4 -0.035,-0.004 -0.054,-0.009 -0.018,-0.004 -0.032,-0.01 -0.049,-0.018 -0.029,-0.015 -0.052,-0.031 -0.075,-0.054 -0.02,-0.02 -0.034,-0.04 -0.044,-0.066 -0.011,-0.026 -0.02,-0.05 -0.027,-0.078 -0.013,-0.048 -0.021,-0.09 -0.029,-0.14 -0.004,-0.022 -0.006,-0.041 -0.009,-0.063 -0.002,-0.014 -0.003,-0.027 -0.004,-0.043 -10e-4,-0.008 0,-0.016 9.6e-4,-0.025 9.6e-4,-0.005 0.002,-0.009 0.005,-0.013 0.003,-0.003 0.005,-0.006 0.009,-0.008 0.005,-0.003 0.01,-0.005 0.015,-0.006 0.011,-0.002 0.021,-0.004 0.033,-0.005 0.015,-0.002 0.027,-0.002 0.043,-0.002 l 0.024,0 0.048,0 c 0.005,0.011 0.009,0.021 0.014,0.033 0.003,0.005 0.004,0.01 0.006,0.016 0.006,0.012 0.009,0.023 0.013,0.037 0.008,0.026 0.015,0.049 0.022,0.076 0.006,0.021 0.011,0.039 0.018,0.06 0.005,0.016 0.01,0.03 0.016,0.045 0.005,0.012 0.011,0.021 0.017,0.031 0.008,0.01 0.015,0.018 0.024,0.025 0.008,0.006 0.014,0.011 0.024,0.014 0.004,0.002 0.015,0.005 0.02,0.006 l 0.026,0.002 c 0.005,0 0.051,-9.6e-4 0.053,-0.006 l 0.02,-0.008 0.016,-0.011 0.014,-0.013 0.013,-0.012 0.02,-0.026 c 0.009,-0.011 0.045,-0.052 0.05,-0.06 l 0.049,-0.067 c 0,-9.6e-4 0.03,-0.046 0.048,-0.07 0.009,-0.012 0.016,-0.02 0.023,-0.03 0.006,-0.009 0.018,-0.021 0.018,-0.023 9.6e-4,-0.004 0.014,-0.021 0.027,-0.034 0.013,-0.014 0.02,-0.023 0.037,-0.039 0.018,-0.016 0.033,-0.027 0.048,-0.039 0.013,-0.012 0.036,-0.02 0.038,-0.02 0.083,-0.014 0.077,-0.032 0.212,-0.053 0.005,0 0.009,-9.6e-4 0.013,-9.6e-4 0.031,-0.003 0.056,-0.006 0.087,-0.009"
           id="path196"
           style="fill:#ffffff;fill-opacity:1;fill-rule:evenodd;stroke:none" />
        <path
           d="m 44.2714,797.7317 0,-0.571 0.389,-0.778 0.208,-1.349 0.337,-0.363 1.738,0.441 2.388,0.389 2.05,0.208 1.791,0.051 1.66,0.027 1.843,-0.156 1.895,-0.234 2.439,-0.389 1.219,-0.156 0.416,1.531 0.363,0.856 0.026,0.493 -4.049,0.752 -2.646,0.259 -1.713,0.104 -0.623,0.13 -0.285,0.156 -0.467,-0.078 -0.649,-0.338 -0.415,0.182 -2.154,-0.26 -2.361,-0.233 -2.751,-0.544 -0.649,-0.13 z m -1.713,6.563 1.064,-0.312 0.519,0.286 0.286,-1.531 0.648,0.234 0.364,-1.66 -0.182,-1.427 -0.908,0.285 -0.156,-0.078 0.415,-0.674 0.779,-0.415 c 0,0 0.493,-0.104 0.857,-0.026 0.363,0.078 1.037,0.441 1.037,0.441 l 0.493,0.467 0.26,0.493 0.129,0.622 -1.22,-0.752 -0.311,0.778 -0.337,0.675 -0.103,0.778 -0.078,0.701 0.829,-0.078 -0.285,0.622 -0.285,1.012 0.623,-0.156 1.012,0.908 1.09,-0.648 0.493,0.233 0.104,-1.219 -0.234,-0.441 0.883,0.337 0.077,-0.57 0.129,-0.909 -0.18,-0.986 -0.191,-0.526 -0.978,0.319 -0.129,-0.103 0.467,-0.805 0.597,-0.415 0.934,-0.13 0.83,0.156 0.623,0.364 0.441,0.467 0.208,0.7 -0.467,-0.156 -0.727,-0.285 -0.337,0.96 -0.13,0.596 0.052,0.675 -0.156,0.7 0.934,-0.207 -0.285,0.492 -0.052,1.141 0.545,-0.129 1.09,0.752 0.96,-0.726 0.519,0.156 0.052,-0.96 -0.312,-0.701 0.935,0.234 -0.156,-0.545 -0.078,-0.234 0.13,-0.415 -0.13,-0.778 -0.259,-0.597 0.026,-0.466 -1.401,0.57 0.311,-0.726 0.441,-0.596 0.986,-0.442 0.961,0 0.648,0.234 0.519,0.389 0.441,0.856 -0.908,-0.337 -0.389,-0.104 -0.286,1.634 0.26,0.727 -0.13,0.648 0.83,-0.181 -0.155,0.285 0.155,1.297 0.416,-0.286 1.141,0.597 1.038,-0.83 0.441,0.13 -0.259,-1.219 -0.208,-0.363 0.857,0.129 -0.182,-1.452 -0.363,-0.908 -0.208,-0.441 0,-0.156 -0.7,0.441 -0.52,0.285 0.234,-1.089 0.519,-0.519 1.012,-0.415 0.909,0 0.778,0.338 0.493,0.803 -0.571,-0.077 -0.545,-0.156 -0.104,1.349 0.338,1.738 0.675,-0.286 0.311,1.557 0.544,-0.182 1.013,0.13 -0.649,-2.62 0.233,-0.623 -0.415,-0.441 -0.519,-1.167 -0.622,-0.726 -1.324,-0.467 -1.687,0.363 -0.883,0.908 -0.336,0.571 -1.038,-0.882 -1.505,-0.338 c 0,0 -0.857,0.26 -1.013,0.338 -0.155,0.077 -0.908,0.7 -0.908,0.7 l -0.389,0.597 -0.778,-0.805 -0.805,-0.57 -1.53,-0.234 -0.961,0.493 -0.805,0.779 -0.519,-0.908 -0.57,-0.545 -0.987,-0.39 -1.115,-0.103 -1.013,0.493 -0.674,0.778 -0.441,1.09 -0.545,0.415 0.285,0.674 -0.208,0.986 c 0,0 -0.233,1.089 -0.311,1.219 -0.078,0.13 -0.078,0.519 -0.078,0.519"
           id="path200"
           style="fill:#cf9a33;fill-opacity:1;fill-rule:evenodd;stroke:none" />
        <path
           d="m 51.6022,796.3134 c -2.358,-0.207 -4.596,-0.535 -6.576,-1.12 0.197,-0.575 1.061,-0.166 1.457,-0.075 1.613,0.372 3.423,0.629 5.157,0.784 -0.024,0.126 0.048,0.348 -0.038,0.411 m 9.716,-0.522 c 0.388,-0.036 0.699,-0.149 1.046,-0.225 -0.02,0.232 0.076,0.348 0.076,0.561 -0.35,0.098 -0.752,0.145 -1.122,0.224 l 0,-0.56 z m -5.568,0.56 c -0.085,-0.077 -0.013,-0.31 -0.037,-0.449 1.782,-0.094 3.575,-0.438 5.194,-0.747 0.426,-0.081 1.38,-0.439 1.42,0.113 -1.963,0.589 -4.242,0.864 -6.577,1.083 m -10.799,-0.262 c 0.018,-0.231 0.021,-0.477 0.15,-0.598 0.305,0.118 0.643,0.203 1.008,0.262 0.005,0.241 0.003,0.476 -0.074,0.635 -0.353,-0.108 -0.722,-0.2 -1.084,-0.299 m 1.383,0.374 c 0.02,-0.216 0.04,-0.433 0.075,-0.635 0.803,0.18 1.651,0.316 2.466,0.485 l 0,0.523 c -0.899,-0.073 -1.671,-0.272 -2.541,-0.373 m 12.144,-0.15 c 0.874,-0.122 1.738,-0.255 2.541,-0.448 l 0,0.56 c -0.835,0.161 -1.662,0.331 -2.541,0.449 l 0,-0.561 z m -2.728,0.299 c 0.836,-0.061 1.64,-0.153 2.429,-0.261 l 0,0.56 c -0.818,0.078 -1.586,0.207 -2.466,0.224 0.037,-0.15 0.046,-0.328 0.037,-0.523 m -6.577,0.299 0,-0.56 c 0.851,0.047 1.607,0.187 2.504,0.187 -0.018,0.193 0.04,0.463 -0.037,0.597 -0.835,-0.062 -1.632,-0.162 -2.467,-0.224 m 10.838,-0.037 c 0.86,-0.136 1.684,-0.308 2.503,-0.486 0.078,0.171 0.122,0.376 0.186,0.561 -0.898,0.172 -1.734,0.406 -2.689,0.522 l 0,-0.597 z m -15.321,0 c 0.089,-0.148 0.129,-0.345 0.186,-0.523 0.812,0.235 1.723,0.37 2.578,0.56 -0.086,0.113 -0.013,0.385 -0.037,0.56 -0.957,-0.151 -1.887,-0.33 -2.727,-0.597 m 12.48,0.411 c 0.894,-0.054 1.691,-0.203 2.504,-0.336 l 0,0.597 c -0.811,0.136 -1.616,0.277 -2.504,0.336 l 0,-0.597 z m -9.453,0.261 0,-0.597 c 0.787,0.158 1.644,0.248 2.503,0.336 l 0,0.597 c -0.892,-0.054 -1.685,-0.209 -2.503,-0.336 m 2.765,0.373 0,-0.597 c 0.383,0.052 0.78,0.091 1.195,0.112 0.034,0.202 0.079,0.394 0.15,0.56 -0.487,0.014 -0.919,-0.028 -1.345,-0.075 m 5.231,-0.485 c 0.422,0.011 0.736,-0.086 1.158,-0.075 l 0,0.56 c -0.406,0.055 -0.8,0.121 -1.27,0.113 0.024,-0.213 0.105,-0.369 0.112,-0.598 m -1.868,-1.495 0.859,0 c -0.011,1.06 0.222,2.364 -0.859,2.354 l 0,-2.354 z m -0.337,2.354 c -1.003,-0.056 -0.826,-1.29 -0.822,-2.354 l 0.859,0 c -0.024,0.773 0.05,1.644 -0.037,2.354 m 8.557,-0.186 c 0.259,-0.092 0.545,-0.154 0.823,-0.225 0.074,0.188 0.23,0.492 0.149,0.71 -0.283,-0.202 -0.661,-0.31 -0.972,-0.485 m -17.6,-0.225 c 0.351,0.023 0.668,0.08 0.935,0.187 -0.397,0.164 -0.761,0.36 -1.159,0.523 -0.007,-0.319 0.158,-0.465 0.224,-0.71 m 11.996,0.374 c 2.283,-0.229 4.597,-0.712 6.464,-1.046 l 0,0.336 c -2.261,0.715 -5.141,1.012 -7.847,1.158 0.226,-0.483 0.722,-0.382 1.383,-0.448 m -4.298,0.485 c -1.28,-0.21 -2.74,-0.252 -4.111,-0.485 -1.027,-0.175 -1.995,-0.326 -2.951,-0.523 -0.242,-0.05 -0.742,-0.097 -0.636,-0.523 2.42,0.469 4.832,0.948 7.549,1.12 0.035,0.136 0.386,0.323 0.223,0.411 -0.024,-0.003 -0.05,0.004 -0.074,0 m 2.018,-0.187 c 0.959,-0.257 0.911,-1.37 0.859,-2.652 l 0.336,0 c 0.08,1.45 0.045,2.783 -1.195,2.914 l 0,-0.262 z m -1.009,0.262 c -1.119,-0.289 -1.311,-1.535 -1.046,-2.914 l 0.186,0 c 0.049,1.091 -0.07,1.968 0.524,2.391 0.146,0.104 0.643,0.193 0.374,0.523 l -0.038,0 z m 0.448,-0.262 c 0.96,0.142 -0.461,0.85 0,0 m 3.811,0.262 c 0.683,-0.052 1.333,-0.138 1.982,-0.224 -0.225,0.299 -0.63,0.74 -0.86,1.158 -0.301,-0.383 -0.727,-0.643 -1.122,-0.934 m -9.304,0 c -0.065,-0.073 -0.222,-0.173 -0.149,-0.262 0.656,0.116 1.408,0.137 2.018,0.299 -0.465,0.27 -0.872,0.598 -1.159,1.047 -0.1,-0.473 -0.461,-0.806 -0.71,-1.084 m 4.522,0.336 c 0.018,-0.168 0.189,-0.184 0.373,-0.187 0.081,0.032 -0.014,0.238 0.076,0.262 l 1.195,0 0,-0.224 c 0.16,-0.066 0.434,-0.042 0.448,0.149 -0.553,0.144 -0.789,0.605 -1.083,1.009 -0.198,-0.475 -0.549,-0.797 -1.009,-1.009 m -9.006,2.017 c -0.277,0.438 -0.837,-0.424 -0.074,-0.411 0.125,0.083 0.12,0.339 0.074,0.411 m 20.553,-0.037 c -0.061,0.208 -0.408,0.242 -0.561,0.037 -0.094,-0.629 0.682,-0.461 0.561,-0.037 m -4.185,1.83 c 0.425,0.297 0.503,0.94 0.597,1.569 -0.139,-0.022 -0.244,-0.079 -0.337,-0.149 -0.319,0.328 -0.594,0.7 -1.046,0.896 -0.434,-0.163 -0.788,-0.407 -1.158,-0.635 -0.04,0.147 -0.146,0.227 -0.299,0.262 0.019,-0.384 -0.186,-0.797 -0.112,-1.121 0.056,-0.245 0.343,-0.274 0.336,-0.523 -0.308,0.139 -0.714,0.182 -1.008,0.336 -0.04,-0.289 0.09,-0.407 0.111,-0.635 -0.57,-0.633 0.057,-1.474 0,-2.204 0.517,0.107 0.793,0.453 1.42,0.449 -0.401,-1.068 -1.338,-1.957 -2.69,-1.756 -1.08,0.16 -1.704,1.07 -1.906,2.054 0.604,-0.044 0.892,-0.403 1.383,-0.56 -0.057,0.814 0.703,1.317 0.224,2.092 0.118,0.156 0.263,0.483 0.224,0.672 -0.374,-0.149 -0.736,-0.31 -1.27,-0.299 0.423,0.325 0.821,0.873 0.598,1.719 -0.112,-0.088 -0.251,-0.148 -0.374,-0.224 -0.336,0.26 -0.63,0.566 -1.046,0.746 -0.368,-0.217 -0.693,-0.478 -1.009,-0.746 -0.124,0.099 -0.248,0.2 -0.448,0.224 0.111,-0.403 -0.039,-0.763 0.074,-1.084 0.111,-0.312 0.513,-0.39 0.486,-0.672 -0.5,-0.002 -0.731,0.266 -1.196,0.299 0.024,-0.287 0.202,-0.422 0.262,-0.673 -0.359,-0.751 0.182,-1.354 0.261,-2.017 0.541,0.094 0.764,0.507 1.383,0.523 -0.278,-1.204 -1.155,-2.18 -2.616,-2.017 -1.022,0.114 -1.722,0.881 -1.98,1.719 0.574,-0.036 0.917,-0.304 1.382,-0.449 0.105,0.749 0.483,1.629 0.075,2.353 0.101,0.086 0.09,0.355 0.038,0.486 -0.429,-0.107 -0.706,-0.365 -1.159,-0.448 0.496,0.327 0.538,1.031 0.374,1.793 -0.14,-0.097 -0.278,-0.196 -0.412,-0.299 -0.306,0.266 -0.646,0.499 -1.083,0.635 -0.312,-0.012 -0.789,-0.872 -1.009,-0.896 -0.1,-0.012 -0.222,0.253 -0.373,0.187 0.068,-0.654 0.167,-1.277 0.597,-1.57 -0.299,-0.049 -0.624,0.064 -1.009,0.038 -0.029,-0.266 0.095,-0.378 0.187,-0.523 -0.246,-1.018 0.509,-1.36 0.635,-2.129 0.448,0.187 0.812,0.658 1.233,0.747 -0.08,-1.502 -1.406,-2.796 -3.027,-2.242 -0.626,0.215 -1.035,0.739 -1.307,1.383 0.558,0.035 0.904,-0.142 1.27,-0.299 0.15,1.11 -0.033,1.938 -0.224,2.876 -0.241,-0.183 -0.597,-0.449 -0.896,-0.448 0.386,0.466 0.004,1.07 -0.038,1.643 -0.214,-0.048 -0.235,-0.287 -0.449,-0.336 -0.23,0.193 -0.554,0.292 -0.896,0.374 0.124,-0.848 0.387,-1.556 0.56,-2.353 0.302,0.027 0.434,-0.287 0.71,-0.336 0.22,-0.04 0.514,0.156 0.748,-0.038 -0.203,-0.146 -0.454,-0.245 -0.785,-0.262 -0.717,-1.333 0.627,-2.644 1.793,-2.764 1.502,-0.153 2.68,0.882 2.953,2.092 0.48,-0.687 1.066,-1.318 2.055,-1.419 1.485,-0.153 2.343,0.811 2.877,1.755 0.454,-0.886 1.193,-1.73 2.429,-1.793 1.218,-0.061 1.964,0.684 2.541,1.457 0.202,-1.208 1.469,-2.192 2.952,-2.054 1.3,0.121 2.324,1.386 1.719,2.726 -0.295,0.055 -0.779,0.118 -0.784,0.337 0.262,0.09 0.521,-0.018 0.784,-0.037 0.214,0.097 0.327,0.295 0.673,0.261 0.167,0.828 0.391,1.601 0.56,2.428 -0.391,-0.045 -0.686,-0.187 -0.934,-0.374 -0.087,0.162 -0.212,0.286 -0.374,0.374 -0.021,-0.592 -0.419,-1.345 -0.037,-1.681 -0.368,0.105 -0.643,0.303 -0.971,0.448 0.108,-0.599 -0.178,-0.926 -0.225,-1.307 -0.06,-0.488 0.091,-0.955 0.037,-1.569 0.326,0.135 0.761,0.359 1.234,0.224 -0.653,-2.38 -4.604,-1.493 -4.26,0.971 0.497,-0.175 0.799,-0.545 1.232,-0.784 0.12,0.796 0.82,1.189 0.561,2.241 0.09,0.111 0.238,0.358 0.187,0.485 -0.288,-0.098 -0.639,-0.133 -1.008,-0.149 m -2.429,2.241 c 0.237,-0.036 0.391,-0.156 0.56,-0.261 0.393,0.164 0.74,0.671 1.158,0.635 0.36,-0.031 0.732,-0.71 1.009,-0.897 0.181,0.081 0.418,0.106 0.635,0.15 -0.25,-0.447 -0.093,-1.301 -0.448,-1.644 0.284,0.015 0.497,0.101 0.748,0.15 -0.059,-0.443 -0.108,-0.737 -0.113,-1.195 -0.002,-0.264 -0.049,-0.494 -0.112,-0.673 -0.14,-0.399 -0.598,-0.71 -0.598,-1.382 -0.506,0.142 -0.721,0.573 -1.196,0.747 -0.037,-1.799 3.102,-2.529 3.7,-0.822 -0.451,-0.023 -0.672,-0.275 -1.046,-0.374 -0.033,0.465 -0.112,0.843 -0.15,1.271 -0.07,0.796 0.281,1.445 0.411,2.203 0.237,-0.074 0.419,-0.203 0.635,-0.298 0.045,0.577 0.246,1 0.225,1.643 0.302,-0.034 0.464,-0.208 0.71,-0.299 0.403,0.108 0.804,0.217 1.195,0.336 -0.076,-0.943 -0.433,-1.932 -0.634,-2.875 0.081,-0.193 0.276,-0.401 0.261,-0.636 -0.025,-0.397 -0.535,-0.54 -0.747,-0.934 -0.347,-0.641 -0.423,-1.567 -0.524,-2.502 -0.041,-0.384 -0.297,-0.842 -0.411,-1.271 -0.204,-0.771 -0.099,-1.309 -0.523,-1.642 -2.089,0.291 -4.061,0.806 -6.315,0.933 -3.261,0.185 -6.354,-0.149 -9.193,-0.672 -0.586,-0.108 -1.374,-0.4 -1.718,-0.261 -0.455,0.182 -0.419,1.589 -0.673,2.203 -0.066,0.16 -0.229,0.277 -0.261,0.411 -0.048,0.188 0.026,0.429 0,0.635 -0.069,0.52 -0.384,1.516 -0.561,2.055 -0.119,0.359 -0.676,0.63 -0.748,0.971 -0.058,0.278 0.111,0.45 0.15,0.71 0.037,0.239 0.002,0.517 -0.037,0.747 -0.122,0.709 -0.38,1.461 -0.599,2.054 0.506,0.116 0.935,-0.159 1.308,-0.299 0.275,0.074 0.398,0.3 0.673,0.373 -0.027,-0.662 0.23,-1.04 0.261,-1.643 0.159,0.005 0.457,0.191 0.636,0.299 0.194,-0.263 0.077,-0.59 0.15,-0.897 0.099,-0.419 0.332,-0.579 0.261,-1.232 -0.049,-0.449 -0.194,-0.857 -0.186,-1.383 -0.296,0.155 -0.599,0.3 -0.972,0.374 0.57,-1.759 3.566,-0.887 3.624,0.822 -0.449,-0.211 -0.687,-0.633 -1.195,-0.785 -0.016,0.859 -0.633,1.095 -0.71,1.793 -0.057,0.51 -0.045,0.962 -0.187,1.457 0.289,-0.009 0.511,-0.086 0.784,-0.112 -0.242,0.306 -0.306,1.114 -0.485,1.606 0.19,0.103 0.495,-0.002 0.672,-0.037 0.347,0.313 0.669,0.651 1.046,0.934 0.21,-0.126 0.405,-0.156 0.635,-0.299 0.122,-0.075 0.396,-0.405 0.486,-0.411 0.163,-0.01 0.41,0.419 0.748,0.299 -0.146,-0.512 0.099,-1.256 -0.075,-1.681 0.234,0.078 0.424,0.2 0.636,0.299 0.213,-0.221 0.114,-0.579 0.149,-0.859 0.047,-0.374 0.191,-0.614 0.187,-0.896 -0.007,-0.486 -0.452,-0.916 -0.336,-1.607 -0.492,0.044 -0.773,0.299 -1.197,0.411 0.358,-1.724 3.615,-1.604 3.85,0.262 -0.482,-0.092 -0.699,-0.449 -1.234,-0.486 -0.066,0.802 -0.713,1.347 -0.373,2.316 -0.125,0.237 -0.222,0.501 -0.187,0.896 0.334,0.011 0.517,-0.13 0.785,-0.187 -0.153,0.309 -0.147,1.1 -0.187,1.644 0.296,0.023 0.495,-0.053 0.673,-0.149 0.36,0.25 0.696,0.524 1.046,0.784 0.42,-0.203 0.732,-0.513 1.083,-0.784 0.209,0.102 0.401,0.222 0.71,0.224 -0.177,-0.47 0.047,-1.342 -0.261,-1.681 0.188,-0.025 0.556,0.091 0.747,0.187 0.101,-0.301 -0.052,-0.67 -0.149,-0.897 0.442,-0.986 -0.425,-1.442 -0.299,-2.465 -0.459,0.164 -0.767,0.478 -1.271,0.598 0.138,-1.796 3.502,-2.089 3.924,-0.262 -0.489,-0.071 -0.731,-0.391 -1.233,-0.448 0.064,0.787 -0.643,1.721 -0.075,2.465 -0.052,0.25 -0.129,0.622 -0.038,0.896 0.221,-0.066 0.446,-0.127 0.635,-0.223 0.033,0.006 0.036,-0.015 0.038,-0.038 -0.166,0.371 0.087,1.077 0.113,1.606"
           id="path204"
           style="fill:#000000;fill-opacity:1;fill-rule:evenodd;stroke:none" />
        <path
           d="m 53.9944,802.2526 c 0.007,0.145 9.6e-4,0.276 -0.038,0.373 -0.814,0.451 -0.554,-1.01 0.038,-0.373 m -0.337,1.719 c 0.251,-0.123 0.173,-0.575 0.188,-0.934 0.206,-0.105 0.393,-0.23 0.448,-0.486 0.318,0.019 0.574,-0.023 0.785,-0.112 -0.159,-0.166 -0.447,-0.201 -0.785,-0.187 -0.088,-0.561 -1.141,-0.57 -1.233,0 -0.312,-0.013 -0.596,0.003 -0.748,0.15 0.124,0.162 0.418,0.155 0.71,0.149 0.113,0.212 0.234,0.413 0.523,0.448 -0.017,0.379 0.011,0.711 0.112,0.972"
           id="path208"
           style="fill:#231f20;fill-opacity:1;fill-rule:evenodd;stroke:none" />
        <path
           d="m 48.7628,802.3278 c -0.268,0.391 -0.822,-0.229 -0.449,-0.486 0.448,-0.164 0.616,0.242 0.449,0.486 m -0.486,1.345 c 0.237,-0.175 0.25,-0.573 0.299,-0.934 0.239,-0.06 0.436,-0.162 0.486,-0.411 0.27,0.037 0.556,0.115 0.784,0 -0.116,-0.195 -0.381,-0.242 -0.672,-0.261 -0.02,-0.529 -1.107,-0.775 -1.27,-0.187 -0.206,-0.042 -0.598,-0.086 -0.747,0.037 0.087,0.223 0.438,0.184 0.672,0.261 0.08,0.232 0.177,0.446 0.448,0.486 -0.032,0.335 -0.132,0.715 0,1.009"
           id="path212"
           style="fill:#231f20;fill-opacity:1;fill-rule:evenodd;stroke:none" />
        <path
           d="m 58.5532,801.9916 c 0.162,-0.299 0.739,-0.221 0.598,0.299 -0.186,0.266 -0.697,0.145 -0.598,-0.299 m 0.523,1.681 c 0.185,-0.22 0.073,-0.629 0.037,-0.934 0.123,-0.176 0.375,-0.223 0.337,-0.561 0.276,-0.047 0.574,-0.072 0.747,-0.224 -0.085,-0.187 -0.515,-0.106 -0.71,-0.074 -0.247,-0.479 -1.245,-0.424 -1.308,0.187 -0.267,0.055 -0.599,0.047 -0.672,0.298 0.191,0.052 0.481,0.052 0.672,0 0.202,0.134 0.293,0.381 0.636,0.374 0.018,0.38 0.087,0.709 0.261,0.934"
           id="path224"
           style="fill:#231f20;fill-opacity:1;fill-rule:evenodd;stroke:none" />
        <path
           d="m 55.6387,807.1459 c 0.316,3.134 0.577,6.188 0.896,9.302 0.129,1.254 0.415,2.583 0.3,3.809 -0.152,1.616 -1.439,2.748 -3.252,2.578 -0.912,-0.086 -1.702,-0.607 -2.092,-1.27 -0.554,-0.942 -0.404,-2.385 -0.262,-3.698 0.304,-2.786 0.466,-5.369 0.71,-7.994 0.126,-1.353 0.275,-2.713 0.262,-3.96 -0.376,-0.121 -0.314,0.285 -0.336,0.449 -0.502,3.616 -0.697,7.539 -1.233,11.019 -0.618,0.269 -1.246,-0.061 -1.383,-0.56 -0.102,-0.373 0.064,-1.052 0.15,-1.569 0.533,-3.25 1.089,-6.583 1.606,-9.749 0.024,-0.144 0.245,-0.603 -0.187,-0.561 -0.151,0.083 -0.086,0.277 -0.112,0.411 -0.478,2.488 -0.969,5.11 -1.382,7.62 -1.043,-0.079 -0.796,-1.412 -0.598,-2.278 0.332,-1.457 0.632,-2.75 0.972,-4.221 0.027,-0.123 0.235,-0.727 0,-0.747 -0.25,-0.022 -0.191,0.198 -0.262,0.486 -0.371,1.517 -0.728,2.82 -1.046,4.22 -0.335,0.103 -0.695,-0.005 -0.86,-0.186 0.423,-1.482 0.847,-2.964 1.27,-4.445 -0.634,0.177 -0.645,0.98 -0.822,1.569 -0.178,0.593 -0.381,1.236 -0.56,1.83 -0.165,0.547 -0.339,1.262 -0.561,1.83 -0.199,0.509 -0.607,1.18 -1.345,0.971 0.522,-1.699 1.286,-3.768 1.906,-5.528 0.088,-0.249 0.245,-0.555 -0.149,-0.635 -0.817,2.102 -1.816,4.777 -2.654,7.06 -0.235,0.641 -0.535,1.9 -0.934,2.316 -0.42,0.437 -1.485,0.278 -1.532,-0.262 -0.019,-0.226 0.376,-0.898 0.523,-1.233 1.137,-2.591 2.167,-4.981 3.251,-7.507 0.134,-0.312 0.642,-0.829 0.15,-1.121 -1.362,2.946 -3.039,6.564 -4.447,9.637 -0.49,1.069 -0.889,2.365 -1.607,3.1 -1.571,1.611 -4.7,0.549 -4.933,-1.606 -0.182,-1.693 0.868,-2.723 1.57,-3.698 1.637,-2.278 3.141,-4.45 4.708,-6.686 0.285,-0.407 0.919,-0.902 0.523,-1.42 -1.544,2.166 -3.211,4.307 -4.782,6.5 -0.187,0.261 -0.49,0.858 -0.748,0.897 -0.509,0.077 -0.994,-0.544 -0.897,-1.159 0.057,-0.359 0.551,-0.793 0.822,-1.12 1.853,-2.235 3.588,-4.382 5.344,-6.537 0.265,-0.326 0.788,-0.711 0.598,-1.232 -1.622,1.84 -3.175,3.749 -4.783,5.603 -0.954,-0.934 0.486,-2.039 1.046,-2.652 1.432,-1.573 2.786,-2.984 4.148,-4.483 0.266,-0.293 0.679,-0.606 0.635,-1.046 -0.223,0.151 -0.469,0.374 -0.673,0.597 -1.335,1.467 -2.667,2.787 -4.035,4.259 -0.177,0.189 -0.482,0.64 -0.748,0.635 -0.186,-0.004 -0.521,-0.355 -0.523,-0.486 -0.002,-0.239 0.558,-0.615 0.785,-0.821 0.341,-0.31 0.592,-0.598 0.822,-0.822 1.392,-1.364 2.785,-2.672 4.111,-3.997 0.254,-0.254 0.703,-0.499 0.672,-0.971 -2.133,1.92 -4.306,4.017 -6.465,5.976 -0.295,0.268 -0.653,0.72 -1.083,1.009 -0.373,0.25 -1.011,0.618 -1.457,0.037 2.901,-2.557 6.066,-5.289 9.042,-7.844 0.172,-0.147 0.563,-0.295 0.449,-0.635 -1.012,0.73 -2.023,1.615 -3.102,2.503 -2.544,2.093 -5.261,4.33 -7.809,6.462 -0.494,0.413 -1.057,1.054 -1.57,1.307 -0.771,0.381 -1.411,-0.136 -1.457,-0.859 4.452,-3.326 9.1,-6.748 13.564,-10.048 0.091,-0.067 0.415,-0.164 0.262,-0.374 -0.21,-0.067 -0.349,0.164 -0.486,0.262 -4.876,3.498 -9.677,6.878 -14.574,10.347 -0.718,0.508 -1.465,1.171 -2.428,1.27 -2.559,0.262 -4.152,-2.783 -2.654,-4.632 0.499,-0.615 1.37,-1.097 2.28,-1.457 0.857,-0.339 1.789,-0.834 2.578,-1.195 4.938,-2.261 9.929,-4.551 14.798,-6.836 0.15,-0.071 0.524,-0.165 0.448,-0.448 -5.259,2.216 -10.717,4.742 -16.031,7.06 -0.321,0.14 -0.931,0.477 -1.121,0.448 -0.572,-0.089 -0.524,-1.157 -0.298,-1.457 0.301,-0.4 1.431,-0.629 2.13,-0.896 5.01,-1.916 9.952,-3.787 14.872,-5.641 0.152,-0.057 0.49,-0.064 0.448,-0.336 -4.646,1.543 -9.349,3.355 -14.05,4.968 -0.213,-1.075 0.689,-1.305 1.532,-1.569 3.989,-1.247 7.843,-2.397 11.734,-3.623 0.28,-0.088 0.699,-0.136 0.784,-0.411 -4.061,1.07 -8.194,2.392 -12.294,3.549 -0.167,-0.179 -0.349,-0.466 -0.261,-0.785 3.838,-1.055 7.995,-2.054 11.882,-3.026 0.204,-0.05 0.669,-0.043 0.673,-0.336 -3.884,0.812 -8.343,1.896 -12.406,2.839 -0.959,0.223 -2.462,0.708 -2.653,-0.411 4.649,-0.964 9.532,-1.782 14.199,-2.689 0.294,-0.056 0.712,-0.074 0.86,-0.299 -0.734,-0.062 -1.502,0.163 -2.278,0.299 -4.653,0.813 -9.448,1.574 -14.126,2.391 -1.323,0.231 -3.531,0.917 -2.99,-1.084 6.156,-0.8 12.696,-1.435 18.909,-2.166 0.131,-0.016 0.49,0.039 0.485,-0.224 -6.365,0.527 -13.612,1.244 -20.253,1.905 -1.134,0.113 -2.419,0.201 -3.251,-0.225 -0.802,-0.409 -1.363,-1.199 -1.457,-2.278 -0.077,-0.88 0.161,-1.497 0.41,-1.905 1.047,-1.709 3.574,-1.171 5.792,-0.971 6.112,0.549 12.094,1.058 18.049,1.606 0.254,0.023 0.657,0.104 0.71,-0.075 -0.09,-0.207 -0.368,-0.132 -0.523,-0.149 -6.284,-0.706 -12.765,-1.329 -18.983,-2.092 -0.263,-0.566 0.057,-1.234 0.486,-1.382 0.578,-0.2 1.714,0.146 2.429,0.263 4.8,0.775 9.538,1.58 14.237,2.352 0.808,0.133 1.588,0.326 2.354,0.299 -0.189,-0.281 -0.589,-0.211 -0.86,-0.262 -4.716,-0.874 -9.495,-1.76 -14.236,-2.578 0.11,-1.108 1.482,-0.767 2.391,-0.559 3.716,0.847 7.353,1.644 10.949,2.464 0.594,0.137 1.177,0.353 1.756,0.337 -0.134,-0.234 -0.446,-0.244 -0.673,-0.299 -3.965,-0.984 -7.957,-1.897 -11.882,-2.876 -0.103,-0.334 0.005,-0.694 0.187,-0.859 3.582,1.015 7.309,2.095 10.836,3.1 0.531,0.151 1.071,0.358 1.532,0.336 0.025,-0.223 -0.264,-0.185 -0.374,-0.223 -2.295,-0.818 -4.747,-1.466 -7.062,-2.168 -1.834,-0.555 -3.846,-1.042 -5.643,-1.718 -0.56,-0.21 -1.259,-0.556 -1.046,-1.344 4.649,1.505 9.461,3.368 14.125,4.855 -0.159,-0.365 -0.653,-0.441 -0.971,-0.56 -4.962,-1.851 -9.856,-3.657 -14.798,-5.453 -0.734,-0.267 -1.82,-0.522 -1.868,-1.271 -0.021,-0.32 0.247,-0.906 0.56,-0.934 0.169,-0.014 0.751,0.303 1.084,0.449 5.168,2.275 10.393,4.568 15.508,6.761 0.145,0.063 0.308,0.207 0.485,0.151 10e-4,-0.3 -0.384,-0.331 -0.56,-0.412 -6.017,-2.738 -12.04,-5.461 -18.049,-8.256 -0.945,-0.439 -1.701,-1 -2.017,-1.905 -0.636,-1.817 0.747,-3.682 2.279,-3.847 1.173,-0.127 2.151,0.439 2.84,0.934 2.218,1.593 4.459,3.215 6.614,4.706 3.019,2.09 5.95,4.237 8.893,6.163 -0.012,-0.388 -0.459,-0.602 -0.71,-0.783 -4.142,-3.004 -8.286,-6.04 -12.406,-9.04 -0.296,-0.217 -0.785,-0.472 -0.822,-0.711 -0.094,-0.622 0.69,-0.969 1.158,-0.895 0.494,0.077 1.193,0.866 1.645,1.232 3.662,2.966 7.18,5.916 10.761,8.816 0.1,0.08 0.219,0.239 0.374,0.224 0.054,-0.308 -0.272,-0.486 -0.448,-0.635 -3.021,-2.57 -6.058,-5.088 -9.043,-7.658 0.681,-0.745 1.454,-0.056 2.018,0.449 2.477,2.222 4.794,4.555 7.249,6.649 0.057,0.048 0.102,0.231 0.224,0.149 -0.015,-0.456 -0.483,-0.669 -0.747,-0.934 -0.888,-0.887 -1.681,-1.657 -2.616,-2.54 -0.874,-0.826 -1.708,-1.676 -2.615,-2.502 -0.267,-0.244 -0.829,-0.599 -0.823,-0.897 0.002,-0.07 0.18,-0.52 0.486,-0.522 0.211,-0.002 0.624,0.532 0.823,0.747 1.715,1.857 3.399,3.546 5.118,5.266 0.122,0.12 0.263,0.398 0.374,0.3 0.018,-0.49 -0.472,-0.744 -0.747,-1.047 -1.443,-1.589 -2.895,-3.103 -4.335,-4.669 -0.579,-0.632 -1.324,-1.216 -1.719,-1.906 -0.167,-0.293 -0.434,-1.072 0.075,-1.306 1.939,2.176 4.048,4.621 5.979,6.872 0.273,0.319 0.507,0.702 0.86,0.934 0.219,-0.298 -0.141,-0.523 -0.3,-0.708 -2.507,-2.95 -4.938,-5.965 -7.436,-8.966 -0.346,-0.416 -0.959,-1.002 -1.009,-1.532 -0.071,-0.759 0.389,-0.874 0.935,-1.046 2.808,3.567 5.481,7.469 8.221,10.982 0.279,-0.36 -0.175,-0.671 -0.337,-0.897 -2.8,-3.9 -5.509,-7.787 -8.296,-11.653 -0.669,-0.929 -1.415,-2.259 -0.784,-3.587 0.466,-0.981 1.634,-1.975 3.176,-1.718 1.674,0.281 2.216,1.866 2.877,3.325 1.872,4.128 3.757,8.038 5.68,12.139 0.092,0.195 0.126,0.425 0.3,0.337 0.26,-0.133 -0.045,-0.516 -0.113,-0.673 -1.476,-3.425 -2.939,-6.733 -4.409,-10.049 -0.137,-0.307 -0.719,-1.274 -0.673,-1.569 0.053,-0.335 0.839,-0.642 1.345,-0.372 0.347,0.184 0.496,0.856 0.71,1.419 1.273,3.339 2.601,6.742 3.85,10.086 0.091,0.244 0.169,0.689 0.336,0.672 0.303,-0.033 -0.035,-0.789 -0.113,-1.008 -0.912,-2.569 -1.945,-5.234 -2.765,-7.695 1.21,-0.249 1.398,1.01 1.682,1.904 0.584,1.84 1.107,3.554 1.681,5.38 0.041,0.13 0.197,0.986 0.411,0.933 0.235,-0.056 0.04,-0.447 -0.037,-0.709 -0.591,-2.012 -1.132,-3.858 -1.681,-5.753 0.189,-0.18 0.477,-0.348 0.822,-0.26 0.469,1.807 0.964,3.778 1.42,5.602 0.057,0.229 0.054,0.547 0.261,0.672 0.326,-0.194 0.097,-0.645 0.038,-0.896 -0.382,-1.628 -0.777,-3.334 -1.159,-5.006 -0.232,-1.017 -0.868,-2.62 0.336,-2.876 0.622,2.753 1.013,5.736 1.682,8.442 0.345,-0.044 0.217,-0.364 0.187,-0.56 -0.521,-3.406 -1.202,-6.837 -1.756,-10.236 -0.089,-0.538 -0.235,-1.167 -0.075,-1.569 0.191,-0.479 0.744,-0.588 1.345,-0.41 0.542,3.866 0.911,8.17 1.42,12.028 0.01,0.074 -0.082,0.285 0.075,0.298 0.444,-0.018 0.205,-0.523 0.187,-0.709 -0.358,-3.593 -0.7,-7.119 -1.009,-10.646 -0.115,-1.314 -0.42,-2.673 -0.299,-3.959 0.097,-1.037 0.741,-1.986 1.681,-2.354 1.017,-0.398 2.271,-0.322 3.177,0.448 0.989,0.843 0.981,2.369 0.784,4.072 -0.485,4.192 -0.76,8.303 -1.121,12.439 -0.025,0.295 -0.172,0.806 0.299,0.859 0.447,-4.209 0.845,-8.47 1.382,-12.588 0.568,-0.265 1.235,0.055 1.383,0.486 0.143,0.412 -0.073,1.14 -0.149,1.605 -0.575,3.522 -1.151,6.932 -1.681,10.347 -0.034,0.216 -0.184,0.541 0.186,0.598 0.559,-2.84 1.077,-5.722 1.57,-8.628 1.216,0.16 0.71,1.787 0.486,2.764 -0.427,1.849 -0.822,3.652 -1.234,5.453 -0.066,0.287 -0.324,0.736 0.075,0.898 0.434,-1.617 0.795,-3.328 1.196,-4.968 0.133,-0.547 0.251,-1.113 0.486,-1.606 0.3,-0.12 0.632,0.034 0.784,0.186 -0.546,1.952 -1.203,4.165 -1.756,6.125 -0.071,0.254 -0.258,0.617 0.112,0.747 0.689,-2.282 1.465,-4.775 2.168,-7.097 0.206,-0.681 0.485,-1.759 1.494,-1.531 -0.798,2.521 -1.863,5.385 -2.765,7.956 -0.122,0.346 -0.447,0.896 -0.074,1.046 0.489,-0.964 0.826,-2.123 1.233,-3.212 0.997,-2.673 1.997,-5.311 3.026,-8.069 0.216,-0.577 0.402,-1.193 1.009,-1.232 0.265,-0.018 0.904,0.211 0.934,0.56 0.01,0.117 -0.219,0.518 -0.336,0.785 -1.301,2.967 -2.443,5.641 -3.737,8.59 -0.319,0.728 -0.915,1.848 -1.196,2.728 -0.075,0.238 -0.123,0.223 0.038,0.298 0.202,0.095 0.177,-0.065 0.262,-0.224 0.078,-0.145 0.158,-0.309 0.223,-0.448 1.881,-4.041 3.629,-8.039 5.457,-12.029 0.593,-1.295 1.128,-2.758 2.429,-3.249 1.51,-0.57 3.182,0.413 3.699,1.494 0.698,1.465 -0.222,3.016 -0.935,3.922 -0.424,0.541 -0.91,1.219 -1.307,1.793 -2.366,3.416 -4.697,6.671 -7.026,9.974 -0.174,0.247 -0.554,0.616 -0.298,0.971 2.488,-3.308 4.889,-6.693 7.361,-10.084 0.175,-0.241 0.872,-1.33 1.121,-1.383 0.577,-0.124 0.898,0.52 0.935,0.859 0.067,0.641 -0.706,1.336 -1.085,1.793 -2.608,3.146 -5.085,6.24 -7.622,9.301 -0.188,0.225 -0.556,0.455 -0.412,0.822 2.382,-2.625 4.75,-5.589 7.138,-8.331 0.493,0.36 0.328,1.076 0.037,1.495 -0.467,0.672 -1.186,1.286 -1.794,1.943 -1.656,1.789 -3.324,3.61 -4.932,5.341 -0.145,0.155 -0.37,0.329 -0.262,0.597 1.812,-1.859 3.845,-3.906 5.68,-5.901 0.232,-0.252 0.631,-0.79 0.897,-0.785 0.177,0.004 0.522,0.288 0.524,0.486 0.002,0.255 -0.624,0.676 -0.86,0.897 -1.873,1.745 -3.645,3.568 -5.419,5.303 -0.282,0.277 -0.796,0.51 -0.784,1.008 2.244,-1.987 4.664,-4.281 6.95,-6.424 0.313,-0.293 0.72,-0.749 1.158,-1.083 0.377,-0.286 1.096,-0.719 1.57,-0.111 -2.96,2.604 -6.147,5.367 -9.193,7.955 -0.198,0.169 -0.543,0.33 -0.485,0.671 1.041,-0.76 2.161,-1.706 3.25,-2.613 2.697,-2.246 5.385,-4.503 8.11,-6.761 0.506,-0.42 1.156,-1.152 1.831,-1.157 0.627,-0.005 0.788,0.389 0.934,0.932 -4.405,3.342 -8.936,6.693 -13.378,9.936 -0.277,0.203 -0.743,0.395 -0.747,0.822 5.084,-3.611 10.202,-7.228 15.321,-10.869 0.712,-0.507 1.489,-1.208 2.466,-1.307 1.881,-0.193 3.27,1.289 3.251,3.025 -0.015,1.237 -0.942,2.095 -1.869,2.615 -0.451,0.253 -0.948,0.384 -1.419,0.597 -5.798,2.614 -11.499,5.44 -17.19,8.032 -0.187,0.085 -0.605,0.109 -0.56,0.447 5.361,-2.213 10.939,-4.898 16.33,-7.208 0.335,-0.145 0.977,-0.476 1.158,-0.448 0.613,0.094 0.506,1.214 0.262,1.493 -0.346,0.397 -1.461,0.624 -2.168,0.897 -5.124,1.969 -10.159,3.832 -15.171,5.752 -0.155,0.061 -0.471,0.059 -0.449,0.336 4.749,-1.616 9.603,-3.451 14.425,-5.117 0.227,0.861 -0.451,1.163 -1.047,1.382 -0.624,0.23 -1.367,0.465 -1.906,0.635 -3.595,1.131 -7.127,2.185 -10.65,3.287 -0.27,0.084 -0.721,0.103 -0.822,0.449 4.24,-1.216 8.435,-2.476 12.668,-3.699 0.17,0.199 0.352,0.472 0.262,0.822 -4.014,1.059 -8.236,2.052 -12.258,3.063 -0.213,0.054 -0.613,0.073 -0.672,0.374 4.071,-0.885 8.575,-1.992 12.742,-2.952 0.977,-0.224 2.495,-0.707 2.691,0.412 -4.857,1.108 -10.163,1.745 -14.984,2.875 -0.107,0.026 -0.43,-0.063 -0.411,0.188 0.372,0.093 0.745,-0.05 1.12,-0.113 5.185,-0.873 10.36,-1.779 15.546,-2.652 0.745,-0.125 1.798,-0.44 2.391,-0.336 0.677,0.12 0.924,0.751 0.636,1.458 -6.336,0.76 -12.893,1.423 -19.208,2.165 -0.121,0.015 -0.491,-0.039 -0.485,0.225 6.408,-0.544 13.329,-1.217 19.768,-1.868 0.948,-0.096 2.013,-0.275 2.951,-0.187 1.436,0.134 2.466,1.162 2.579,2.653 0.07,0.929 -0.219,1.678 -0.635,2.166 -1.166,1.365 -3.61,0.842 -5.643,0.673 -6.212,-0.518 -12.189,-1.08 -18.31,-1.607 -0.248,-0.021 -0.628,-0.167 -0.71,0.037 0.083,0.206 0.372,0.132 0.523,0.15 6.381,0.751 12.952,1.353 19.282,2.091 0.336,0.538 -0.009,1.268 -0.449,1.42 -0.293,0.101 -0.803,-0.004 -1.233,-0.075 -5.932,-0.968 -11.806,-1.928 -17.6,-2.913 -0.169,-0.029 -0.504,-0.131 -0.523,0.037 0.031,0.162 0.264,0.163 0.374,0.187 0.151,0.034 0.339,0.049 0.485,0.075 4.859,0.873 9.731,1.773 14.574,2.614 -0.138,1.113 -1.492,0.773 -2.43,0.561 -4.101,-0.93 -8.119,-1.878 -12.106,-2.765 -0.285,-0.063 -0.606,-0.166 -0.897,-0.112 0.131,0.252 0.484,0.245 0.71,0.3 3.501,0.846 7.135,1.74 10.575,2.577 0.548,0.133 1.117,0.173 1.607,0.448 0.118,0.3 -0.035,0.632 -0.188,0.784 -3.673,-1.082 -7.534,-2.117 -11.21,-3.175 -0.506,-0.146 -1.004,-0.401 -1.532,-0.373 0.184,0.289 0.575,0.286 0.859,0.373 3.57,1.092 7.057,2.162 10.613,3.25 0.543,0.166 1.314,0.333 1.943,0.56 0.573,0.207 1.288,0.592 1.085,1.383 -4.43,-1.521 -9.131,-3.114 -13.603,-4.707 -0.263,-0.094 -0.555,-0.313 -0.859,-0.225 0.017,0.249 0.334,0.242 0.485,0.299 5.17,1.958 10.399,3.906 15.583,5.79 0.77,0.28 1.855,0.479 1.906,1.271 0.022,0.347 -0.237,0.905 -0.561,0.933 -0.168,0.015 -0.763,-0.307 -1.083,-0.448 -5.291,-2.33 -10.617,-4.62 -15.845,-6.91 -0.121,-0.053 -0.348,-0.275 -0.485,-0.075 0.102,0.238 0.4,0.245 0.597,0.336 5.77,2.642 11.489,5.29 17.302,7.919 0.815,0.369 1.883,0.785 2.429,1.345 1.333,1.367 0.714,3.843 -0.785,4.632 -1.279,0.673 -2.913,-0.086 -3.774,-0.71 -5.069,-3.676 -10.237,-7.232 -15.246,-10.795 -0.157,-0.112 -0.349,-0.287 -0.561,-0.262 -0.096,0.229 0.18,0.324 0.299,0.411 4.378,3.223 8.769,6.429 13.154,9.6 0.277,0.201 0.819,0.522 0.859,0.71 0.142,0.667 -0.75,1.02 -1.195,0.934 -0.25,-0.049 -0.566,-0.395 -0.86,-0.635 -4.071,-3.32 -8.015,-6.58 -11.995,-9.825 -0.109,-0.088 -0.25,-0.244 -0.411,-0.224 -0.112,0.312 0.296,0.431 0.448,0.56 3.186,2.697 6.409,5.484 9.566,8.143 -0.702,0.768 -1.497,0.016 -2.055,-0.484 -2.635,-2.367 -5.421,-5.056 -7.885,-7.21 0.088,0.453 0.473,0.722 0.785,1.008 1.885,1.729 3.725,3.596 5.605,5.342 0.27,0.251 0.865,0.716 0.86,0.971 -0.002,0.104 -0.267,0.521 -0.486,0.523 -0.281,0.003 -0.64,-0.585 -0.821,-0.784 -0.296,-0.322 -0.656,-0.652 -0.823,-0.822 -1.532,-1.563 -2.956,-3.067 -4.447,-4.557 -0.105,-0.106 -0.197,-0.316 -0.373,-0.299 0.075,0.516 0.534,0.843 0.859,1.195 1.678,1.825 3.327,3.522 5.007,5.342 0.257,0.278 0.691,0.665 0.972,1.083 0.25,0.372 0.618,1.026 0.038,1.457 -1.838,-1.96 -3.725,-4.396 -5.569,-6.35 -0.077,0.61 0.468,0.994 0.786,1.382 1.983,2.425 3.947,4.82 5.978,7.246 0.323,0.386 0.856,0.831 0.71,1.495 -0.088,0.399 -0.504,0.572 -0.972,0.672 -2.109,-2.723 -4.149,-5.714 -6.24,-8.33 -0.006,0.218 0.065,0.359 0.037,0.598 2.002,2.743 3.927,5.535 5.942,8.329 0.743,1.032 1.94,2.14 1.719,3.886 -0.169,1.331 -1.58,2.444 -3.027,2.427 -1.935,-0.022 -2.581,-1.801 -3.213,-3.249 -1.514,-3.467 -3.53,-7.423 -5.008,-10.721 -0.384,0.367 -0.017,0.896 0.149,1.27 1.177,2.65 2.275,5.136 3.475,7.807 0.162,0.358 0.602,1.078 0.561,1.345 -0.05,0.326 -0.79,0.608 -1.271,0.411 -0.558,-0.23 -0.933,-1.771 -1.158,-2.354 -1.008,-2.616 -1.946,-5.309 -2.914,-7.694 -0.31,0.209 -0.168,0.484 -0.075,0.747 0.678,1.916 1.417,3.919 2.055,5.789 -1.402,0.191 -1.602,-1.596 -1.906,-2.577 -0.274,-0.888 -0.52,-1.793 -0.785,-2.652 -0.085,-0.275 -0.17,-0.67 -0.56,-0.598 0.408,1.349 0.803,2.709 1.196,4.072 -0.189,0.18 -0.478,0.347 -0.822,0.261 -0.344,-1.373 -0.754,-2.893 -1.084,-4.22 -0.042,-0.171 -0.028,-0.422 -0.187,-0.524 -0.378,0.033 -0.195,0.439 -0.149,0.635 0.323,1.403 0.646,2.683 0.972,4.072 0.23,0.984 0.614,2.356 -0.449,2.54 -0.487,-2.371 -0.942,-4.824 -1.42,-7.284 -0.042,-0.215 -0.026,-1.002 -0.374,-0.896 -0.153,0.047 -0.048,0.347 0,0.635 0.566,3.369 1.115,6.51 1.644,9.749 0.085,0.518 0.265,1.11 0.187,1.494 -0.131,0.651 -0.811,0.885 -1.457,0.598 -0.443,-3.879 -0.901,-7.741 -1.308,-11.655 -0.491,0.238 -0.283,0.992 -0.224,1.569 m 3.961,3.848 c 0.232,-0.007 0.686,-0.075 0.897,-0.225 0.219,0.983 0.751,1.831 2.018,1.644 0.461,0.755 0.722,2.28 1.27,3.101 0.43,0.644 1.577,0.737 2.242,0.074 0.908,1.713 1.479,3.856 4.148,3.624 1.809,-0.158 3.294,-1.73 3.251,-3.661 -0.033,-1.48 -1.125,-2.23 -1.681,-3.288 0.703,-0.341 1.481,-0.998 1.121,-1.979 -0.159,-0.431 -0.66,-0.896 -1.009,-1.307 -0.393,-0.462 -0.769,-0.884 -1.084,-1.233 0.949,-0.736 0.287,-2.182 -0.448,-2.689 0.109,-0.123 0.202,-0.175 0.336,-0.299 0.032,-0.031 0.266,-0.332 0.299,-0.337 0.133,-0.016 0.74,0.646 0.897,0.71 0.639,0.262 1.22,0.057 1.681,-0.336 0.408,0.335 0.906,0.716 1.457,1.158 0.455,0.364 0.977,0.964 1.533,1.046 0.857,0.126 1.366,-0.536 1.644,-1.195 1.068,0.501 1.726,1.552 3.102,1.681 1.976,0.184 3.703,-1.413 3.811,-3.325 0.138,-2.453 -1.813,-3.348 -3.625,-4.072 0.022,-0.214 0.253,-0.383 0.337,-0.597 0.836,-2.157 -2.284,-2.22 -3.476,-2.877 0.413,-1.261 -0.665,-1.862 -1.682,-2.054 -0.023,-0.219 0.279,-0.609 0.188,-0.896 1.072,0.378 2.195,0.038 2.428,-0.934 1.069,-0.039 2.445,0.603 3.513,0.448 0.787,-0.114 1.119,-0.96 1.047,-1.905 0.897,9.6e-4 1.662,0.161 2.391,0.149 1.875,-0.027 3.244,-1.746 3.101,-3.735 -0.064,-0.891 -0.452,-1.648 -1.008,-2.204 -0.43,-0.429 -1.166,-0.962 -1.981,-1.008 -0.839,-0.049 -1.674,0.201 -2.579,0.186 0.115,-0.994 -0.257,-1.804 -1.046,-1.942 -1.041,-0.183 -2.385,0.511 -3.363,0.523 -0.034,-1.123 -1.53,-1.351 -2.541,-0.934 -0.007,-0.232 -0.075,-0.686 -0.224,-0.896 0.982,-0.22 1.831,-0.752 1.644,-2.017 1.009,-0.732 3.619,-0.718 3.662,-2.28 0.015,-0.528 -0.225,-0.897 -0.485,-1.232 1.676,-0.957 3.833,-1.354 3.625,-4.109 -0.079,-1.027 -0.662,-2.039 -1.533,-2.651 -0.768,-0.541 -2.155,-0.948 -3.289,-0.411 -0.367,0.173 -0.7,0.515 -1.046,0.746 -0.364,0.244 -0.737,0.429 -1.084,0.709 -0.342,-0.702 -0.998,-1.479 -1.98,-1.12 -0.43,0.159 -0.897,0.66 -1.308,1.009 -0.462,0.393 -0.883,0.768 -1.233,1.083 -0.735,-0.947 -2.183,-0.286 -2.69,0.449 -0.217,-0.194 -0.321,-0.501 -0.635,-0.598 0.107,-0.327 0.554,-0.552 0.709,-0.934 0.248,-0.606 0.051,-1.267 -0.336,-1.681 0.335,-0.408 0.716,-0.905 1.159,-1.456 0.364,-0.455 0.964,-0.978 1.046,-1.532 0.126,-0.857 -0.537,-1.366 -1.196,-1.644 0.576,-1.216 1.837,-1.887 1.681,-3.771 -0.134,-1.646 -1.637,-3.044 -3.325,-3.139 -1.057,-0.059 -2.367,0.389 -2.99,1.345 -0.443,0.679 -0.627,1.446 -1.083,2.278 -0.382,-0.16 -0.763,-0.518 -1.421,-0.448 -1.424,0.15 -1.432,2.518 -2.055,3.586 -1.262,-0.413 -1.863,0.666 -2.055,1.681 -0.22,0.023 -0.608,-0.278 -0.897,-0.187 0.38,-1.072 0.039,-2.194 -0.934,-2.429 -0.015,-0.967 0.547,-2.449 0.448,-3.435 -0.08,-0.814 -0.916,-1.209 -1.906,-1.121 -0.008,-0.877 0.169,-1.624 0.15,-2.428 -0.043,-1.846 -1.78,-3.217 -3.774,-3.063 -1.468,0.114 -3.086,1.43 -3.176,2.988 -0.046,0.787 0.192,1.611 0.187,2.578 -0.994,-0.114 -1.805,0.257 -1.943,1.046 -0.183,1.041 0.51,2.384 0.523,3.361 -1.124,0.035 -1.353,1.53 -0.935,2.541 -0.232,0.007 -0.686,0.074 -0.896,0.223 -0.22,-0.981 -0.752,-1.83 -2.018,-1.643 -0.458,-0.74 -0.712,-2.226 -1.233,-3.063 -0.422,-0.678 -1.598,-0.789 -2.28,-0.113 -0.863,-1.59 -1.311,-3.43 -3.512,-3.623 -2.249,-0.196 -3.932,1.623 -3.886,3.662 0.032,1.49 1.12,2.214 1.681,3.286 -0.734,0.332 -1.522,1.085 -1.083,2.055 0.19,0.421 0.665,0.862 1.008,1.269 0.373,0.443 0.732,0.862 1.047,1.196 -0.949,0.736 -0.287,2.183 0.448,2.69 -0.194,0.217 -0.502,0.32 -0.598,0.635 -0.327,-0.108 -0.552,-0.554 -0.935,-0.71 -0.605,-0.248 -1.268,-0.049 -1.681,0.336 -0.415,-0.305 -0.889,-0.735 -1.42,-1.159 -0.452,-0.36 -1.02,-0.957 -1.532,-1.044 -0.883,-0.151 -1.401,0.535 -1.682,1.195 -1.224,-0.574 -1.896,-1.86 -3.811,-1.682 -1.618,0.151 -3.007,1.65 -3.101,3.325 -0.06,1.056 0.39,2.367 1.345,2.988 0.68,0.443 1.447,0.627 2.279,1.084 -0.16,0.382 -0.517,0.762 -0.448,1.419 0.15,1.424 2.52,1.432 3.587,2.054 -0.412,1.262 0.666,1.863 1.682,2.055 0.023,0.22 -0.279,0.608 -0.187,0.896 -1.072,-0.378 -2.196,-0.038 -2.429,0.935 -1.068,0.038 -2.444,-0.604 -3.513,-0.449 -0.787,0.115 -1.118,0.96 -1.046,1.905 -0.877,0.009 -1.625,-0.168 -2.429,-0.15 -2.867,0.068 -3.994,4.002 -2.055,5.94 0.472,0.472 1.252,0.966 1.981,1.008 0.786,0.046 1.612,-0.192 2.578,-0.187 -0.114,0.994 0.257,1.805 1.046,1.943 1.041,0.182 2.386,-0.51 3.363,-0.523 0.034,1.124 1.531,1.352 2.541,0.934 0.008,0.233 0.075,0.686 0.225,0.897 -0.982,0.219 -1.832,0.751 -1.645,2.016 -0.803,0.578 -3.125,0.803 -3.55,1.756 -0.241,0.542 -0.025,1.355 0.374,1.756 -1.677,0.959 -3.834,1.354 -3.625,4.109 0.078,1.027 0.662,2.04 1.532,2.652 0.768,0.54 2.156,0.946 3.289,0.41 0.368,-0.173 0.701,-0.515 1.046,-0.747 0.364,-0.243 0.738,-0.428 1.084,-0.709 0.338,0.705 1.001,1.48 1.98,1.12 0.431,-0.157 0.897,-0.658 1.308,-1.008 0.462,-0.393 0.884,-0.768 1.233,-1.083 0.736,0.948 2.183,0.286 2.691,-0.449 0.216,0.194 0.32,0.502 0.636,0.598 -0.108,0.327 -0.555,0.553 -0.711,0.934 -0.248,0.606 -0.05,1.268 0.337,1.681 -0.478,0.824 -1.708,1.792 -2.131,2.764 -0.351,0.808 0.393,1.634 1.122,1.868 -0.577,1.217 -1.837,1.885 -1.682,3.773 0.135,1.643 1.638,3.042 3.326,3.137 1.057,0.06 2.367,-0.389 2.989,-1.344 0.443,-0.681 0.629,-1.445 1.084,-2.279 0.382,0.16 0.762,0.518 1.42,0.448 1.424,-0.15 1.432,-2.519 2.055,-3.586 1.262,0.412 1.863,-0.665 2.055,-1.681 0.22,-0.023 0.609,0.279 0.897,0.187 -0.379,1.072 -0.039,2.195 0.934,2.428 0.016,1.049 -0.555,2.384 -0.448,3.437 0.085,0.845 0.919,1.195 1.906,1.12 0.008,0.877 -0.169,1.625 -0.15,2.428 0.067,2.866 4.003,3.992 5.942,2.054 0.472,-0.472 0.966,-1.25 1.008,-1.979 0.046,-0.787 -0.192,-1.612 -0.187,-2.577 0.994,0.113 1.806,-0.258 1.944,-1.046 0.182,-1.041 -0.511,-2.386 -0.523,-3.362 1.123,-0.035 1.352,-1.53 0.934,-2.54"
           id="path228"
           style="fill:#000000;fill-opacity:1;fill-rule:evenodd;stroke:none" />
        <path
           d="m 54.7414,805.8017 c -0.226,0.185 -0.122,0.544 -0.112,0.784 0.158,3.902 0.343,7.854 0.524,11.879 0.027,0.617 0.152,1.349 0.036,1.792 -0.259,0.994 -2.059,1.178 -2.391,0.112 -0.14,-0.449 -0.01,-1.182 0,-1.792 0.062,-3.908 0.334,-7.815 0.411,-11.692 0.005,-0.278 0.08,-0.612 -0.074,-0.747 -0.263,0.185 -0.139,0.573 -0.151,0.822 -0.159,3.789 -0.375,7.901 -0.56,11.804 -0.071,1.504 -0.056,2.574 1.308,2.726 0.873,0.098 1.652,-0.452 1.832,-1.121 0.128,-0.479 0.002,-1.204 -0.038,-1.83 -0.265,-4.119 -0.34,-8.329 -0.673,-12.438 -0.005,-0.068 0.057,-0.287 -0.112,-0.299"
           id="path240"
           style="fill:#000000;fill-opacity:1;fill-rule:evenodd;stroke:none" />
        <path
           d="m 45.4749,804.3822 c -0.265,-0.018 -0.361,0.432 -0.486,0.672 -1.765,3.381 -3.58,6.765 -5.344,10.273 -0.236,0.469 -0.596,1.275 -0.934,1.456 -0.854,0.458 -1.943,-0.142 -1.943,-1.083 0,-0.502 0.472,-1.013 0.747,-1.457 0.819,-1.319 1.719,-2.747 2.504,-3.996 1.149,-1.831 2.255,-3.604 3.251,-5.342 -0.303,-0.007 -0.431,0.32 -0.561,0.523 -1.787,2.786 -3.675,5.73 -5.493,8.591 -0.307,0.483 -0.906,1.098 -0.822,1.905 0.111,1.061 1.624,1.795 2.616,1.12 0.355,-0.24 0.672,-0.973 0.934,-1.494 1.764,-3.507 3.517,-6.899 5.269,-10.384 0.119,-0.235 0.309,-0.506 0.262,-0.784"
           id="path244"
           style="fill:#000000;fill-opacity:1;fill-rule:evenodd;stroke:none" />
        <path
           d="m 64.6066,804.83 c -0.056,0.165 0.163,0.423 0.299,0.635 1.804,2.812 3.639,5.668 5.494,8.554 0.25,0.391 0.711,0.999 0.746,1.382 0.091,0.959 -0.854,1.678 -1.793,1.308 -0.435,-0.172 -0.735,-0.902 -1.009,-1.42 -1.832,-3.456 -3.656,-6.787 -5.456,-10.234 -0.062,-0.119 -0.114,-0.288 -0.187,-0.412 -0.045,-0.077 -0.105,-0.317 -0.261,-0.261 -0.213,0.061 0.013,0.281 0.037,0.336 0.401,0.918 0.928,1.844 1.42,2.764 1.354,2.536 2.674,5.219 4.073,7.845 0.396,0.741 0.707,1.757 1.607,1.867 1.086,0.133 2.248,-0.901 1.906,-2.092 -0.124,-0.433 -0.569,-0.966 -0.822,-1.345 -1.853,-2.766 -3.714,-5.611 -5.531,-8.404 -0.134,-0.206 -0.208,-0.519 -0.523,-0.523"
           id="path248"
           style="fill:#000000;fill-opacity:1;fill-rule:evenodd;stroke:none" />
        <path
           d="m 44.0168,794.3712 c -1.489,0.808 -2.903,1.8 -4.372,2.727 -4.008,2.53 -7.923,5.011 -12.032,7.62 -0.378,0.239 -0.781,0.605 -1.121,0.635 -1.012,0.087 -1.637,-0.957 -1.308,-1.793 0.243,-0.615 1.533,-1.048 2.242,-1.419 4.829,-2.527 9.521,-5.068 14.312,-7.62 0.782,-0.417 1.593,-0.806 2.317,-1.308 -0.204,-0.047 -0.426,0.094 -0.598,0.187 -5.23,2.81 -10.725,5.526 -16.106,8.367 -0.894,0.472 -2.527,0.989 -2.653,2.017 -0.142,1.155 0.941,2.222 2.093,1.905 0.279,-0.077 0.747,-0.431 1.12,-0.672 5.07,-3.277 10.103,-6.556 15.098,-9.899 0.337,-0.226 0.791,-0.364 1.008,-0.747"
           id="path252"
           style="fill:#000000;fill-opacity:1;fill-rule:evenodd;stroke:none" />
        <path
           d="m 63.3363,792.8771 c 0.019,0.262 0.344,0.322 0.523,0.411 3.057,1.511 6.013,3.172 9.118,4.744 2.798,1.416 5.624,2.9 8.52,4.445 0.465,0.247 0.919,0.416 1.084,0.747 0.376,0.753 -0.085,1.878 -1.047,1.905 -0.431,0.012 -0.864,-0.344 -1.27,-0.598 -5.643,-3.531 -11.375,-7.105 -16.928,-10.534 0.019,0.257 0.317,0.342 0.486,0.448 4.986,3.171 10.014,6.376 15.096,9.638 0.698,0.448 1.729,1.345 2.467,1.42 1.296,0.13 2.189,-1.538 1.457,-2.615 -0.365,-0.537 -1.625,-0.985 -2.354,-1.345 -5.69,-2.812 -11.611,-5.964 -17.152,-8.666"
           id="path256"
           style="fill:#000000;fill-opacity:1;fill-rule:evenodd;stroke:none" />
        <path
           d="m 44.8765,793.9975 0,-13.074 c 0,-1.479 -0.14,-3.062 0.15,-4.221 0.476,-1.906 2.634,-2.588 4.297,-3.361 1.528,-0.713 2.966,-1.395 4.484,-2.018 1.14,0.535 2.378,1.128 3.624,1.719 1.235,0.585 2.549,1.048 3.587,1.794 0.375,0.268 0.668,0.587 0.898,0.97 0.643,1.076 0.56,2.717 0.56,4.445 0,4.63 0.059,9.302 0,13.858 l -17.563,0 c -0.043,-0.006 -0.04,-0.059 -0.037,-0.112 m -0.299,0.448 18.236,0 0,-14.38 c 0,-1.71 0.113,-3.307 -0.486,-4.408 -0.704,-1.293 -2.667,-1.936 -4.036,-2.578 -1.615,-0.757 -3.064,-1.411 -4.484,-2.092 -1.951,0.833 -4.029,1.748 -6.016,2.653 -1.071,0.487 -2.25,0.928 -2.765,1.98 -0.549,1.116 -0.449,2.709 -0.449,4.37 0,4.762 -0.07,9.589 -0.037,14.343 -0.004,0.053 -0.007,0.106 0.037,0.112"
           id="path260"
           style="fill:#000000;fill-opacity:1;fill-rule:evenodd;stroke:none" />
        <path
           d="m 44.0168,788.5439 c -1.809,-0.034 -3.675,0.06 -5.567,0.15 -4.624,0.219 -9.261,0.431 -14.051,0.634 -1.539,0.066 -3.398,0.513 -3.625,-0.896 -0.108,-0.673 0.311,-1.284 0.748,-1.42 0.684,-0.212 1.907,0.021 2.803,0.038 6.583,0.13 13.21,0.571 19.692,0.635 -0.406,-0.186 -0.889,-0.127 -1.345,-0.149 -6.071,-0.296 -12.294,-0.548 -18.534,-0.823 -0.877,-0.037 -2.125,-0.25 -2.766,-0.036 -0.647,0.215 -1.214,1.1 -0.896,2.054 0.142,0.431 0.729,1.083 1.233,1.083 1.836,0 3.71,-0.191 5.605,-0.299 1.847,-0.104 3.736,-0.178 5.605,-0.298 3.745,-0.243 7.493,-0.322 11.098,-0.673"
           id="path264"
           style="fill:#000000;fill-opacity:1;fill-rule:evenodd;stroke:none" />
        <path
           d="m 63.3363,787.5726 c 3.618,0.023 7.39,-0.251 11.36,-0.411 3.245,-0.131 6.602,-0.287 9.977,-0.448 1.179,-0.056 2.075,-0.036 2.242,0.971 0.112,0.675 -0.309,1.284 -0.747,1.42 -0.66,0.205 -2.07,-0.021 -2.878,-0.037 -6.663,-0.142 -13.43,-0.557 -19.954,-0.673 0.038,0.169 0.414,0.141 0.598,0.149 7.063,0.311 14.267,0.606 21.337,0.934 0.312,0.015 0.855,0.056 1.158,-0.074 1.273,-0.549 0.99,-2.728 -0.261,-3.064 -0.71,-0.19 -1.945,0.07 -2.84,0.112 -6.579,0.314 -13.734,0.704 -19.992,1.121"
           id="path268"
           style="fill:#000000;fill-opacity:1;fill-rule:evenodd;stroke:none" />
        <path
           d="m 63.2988,781.9694 c 0.217,0.038 0.358,-0.156 0.523,-0.262 5.408,-3.431 10.759,-6.82 16.256,-10.309 0.406,-0.257 0.79,-0.621 1.196,-0.634 0.959,-0.033 1.526,0.935 1.232,1.755 -0.218,0.61 -1.648,1.184 -2.242,1.495 -5.65,2.947 -11.422,6.061 -16.927,9.001 0.005,0.044 -0.009,0.067 -0.038,0.074 -0.01,0.067 0.035,0.077 0.038,0.038 5.744,-2.823 11.518,-6.088 17.413,-9.002 0.789,-0.391 1.922,-0.827 2.167,-1.568 0.39,-1.177 -0.667,-2.226 -1.719,-2.167 -0.439,0.024 -0.816,0.365 -1.233,0.636 -5.259,3.403 -10.351,6.806 -15.62,10.16 -0.356,0.226 -0.767,0.445 -1.046,0.783"
           id="path272"
           style="fill:#000000;fill-opacity:1;fill-rule:evenodd;stroke:none" />
        <path
           d="m 43.98,783.0895 c 0.036,-9.6e-4 0.029,-0.045 0.037,-0.074 -0.097,-0.223 -0.377,-0.276 -0.561,-0.373 -5.684,-3.027 -11.475,-5.916 -17.263,-9.002 -0.438,-0.234 -0.93,-0.424 -1.084,-0.71 -0.417,-0.776 0.112,-1.916 1.046,-1.943 0.391,-0.011 0.886,0.319 1.271,0.56 5.509,3.473 11.124,7.021 16.591,10.348 0.01,-0.245 -0.301,-0.317 -0.448,-0.411 -5.399,-3.437 -10.77,-6.848 -16.218,-10.384 -0.402,-0.261 -0.864,-0.524 -1.345,-0.486 -1.041,0.083 -1.854,1.592 -1.159,2.614 0.37,0.545 1.58,0.938 2.317,1.307 5.54,2.786 11.249,5.783 16.741,8.48 0.009,0.041 0.074,0.025 0.075,0.074"
           id="path276"
           style="fill:#000000;fill-opacity:1;fill-rule:evenodd;stroke:none" />
        <path
           d="m 62.2899,774.7979 c 0.043,0.006 0.067,-0.008 0.075,-0.037 2.589,-4.054 5.344,-8.364 8.034,-12.551 0.353,-0.549 0.977,-1.251 0.897,-2.017 -0.112,-1.068 -1.654,-1.775 -2.616,-1.121 -0.434,0.295 -0.734,1.173 -1.046,1.792 -1.894,3.768 -3.832,7.457 -5.718,11.207 -0.161,0.321 -0.286,0.666 -0.448,0.972 -0.147,0.277 -0.412,0.523 -0.373,0.858 0.226,0.095 0.244,-0.23 0.298,-0.336 2.122,-4.118 4.316,-8.286 6.54,-12.477 0.3,-0.566 0.612,-1.521 1.046,-1.755 0.898,-0.481 1.92,0.239 1.943,1.047 0.017,0.606 -0.644,1.38 -0.971,1.905 -2.591,4.14 -5.184,8.281 -7.773,12.364 0.011,0.075 0.101,0.072 0.112,0.149"
           id="path280"
           style="fill:#000000;fill-opacity:1;fill-rule:evenodd;stroke:none" />
        <path
           d="m 45.0632,774.6484 c 0.049,-0.013 0.059,-0.064 0.112,-0.074 -0.066,-0.319 -0.276,-0.629 -0.448,-0.897 -2.565,-3.992 -5.055,-7.986 -7.698,-12.066 -0.212,-0.327 -0.46,-0.623 -0.486,-0.895 -0.08,-0.86 0.794,-1.702 1.794,-1.308 0.472,0.185 0.859,1.113 1.159,1.68 2.209,4.184 4.303,8.276 6.576,12.402 0.055,0.1 0.111,0.351 0.299,0.299 0.084,-0.156 -0.086,-0.325 -0.149,-0.448 -2.18,-4.22 -4.334,-8.441 -6.615,-12.7 -0.343,-0.643 -0.611,-1.417 -1.196,-1.644 -1.132,-0.44 -2.457,0.7 -2.204,1.905 0.115,0.546 0.699,1.259 1.046,1.793 2.514,3.864 5.451,8.264 7.81,11.953"
           id="path284"
           style="fill:#000000;fill-opacity:1;fill-rule:evenodd;stroke:none" />
        <path
           d="m 54.5927,770.9503 c 0.031,0.007 0.035,-0.014 0.037,-0.038 0.233,-4.325 0.385,-8.996 0.598,-13.484 0.032,-0.687 0.165,-1.444 -0.038,-1.942 -0.529,-1.3 -2.718,-0.95 -3.064,0.224 -0.139,0.472 -0.004,1.243 0.038,1.905 0.279,4.419 0.423,9.019 0.784,13.297 0.288,-0.191 0.124,-0.572 0.112,-0.821 -0.193,-4.066 -0.34,-8.223 -0.523,-12.363 -0.028,-0.642 -0.157,-1.409 -0.037,-1.869 0.262,-1 2.058,-1.17 2.392,-0.112 0.141,0.449 0.012,1.245 0,1.905 -0.064,3.201 -0.274,6.276 -0.337,9.451 -0.025,1.293 -0.148,2.718 -0.075,3.809 0.061,-0.01 0.065,0.037 0.113,0.038"
           id="path288"
           style="fill:#000000;fill-opacity:1;fill-rule:evenodd;stroke:none" />
      </g>
    </g>
  </g>
</svg>
